<?xml version="1.0" encoding="UTF-8"?> <svg xmlns="http://www.w3.org/2000/svg" width="151" height="42" viewBox="0 0 151 42" fill="none"> <path d="M14.2971 17.9495C14.2971 19.0461 14.0895 19.9553 13.6734 20.6784C13.2567 21.4019 12.6939 21.9756 11.9858 22.399C11.2786 22.8235 10.446 23.1193 9.48769 23.2854C8.53055 23.4514 7.51129 23.5346 6.42604 23.5346C6.01004 23.5346 5.58585 23.5247 5.15148 23.509C4.71866 23.4928 4.29815 23.4728 3.89142 23.4462C3.48141 23.4228 3.1033 23.3943 2.75399 23.3586C2.40474 23.3272 2.10459 23.2854 1.85374 23.2345C1.353 23.1522 1.00041 23.0023 0.79292 22.7859C0.582986 22.5713 0.480469 22.1792 0.480469 21.6126V6.45318C0.480469 5.88637 0.579184 5.49672 0.778679 5.28118C0.980044 5.06526 1.32104 4.91488 1.80387 4.83024C2.01986 4.79785 2.29977 4.76406 2.64187 4.73058C2.98287 4.69787 3.35757 4.66943 3.76487 4.64321C4.17417 4.61973 4.59488 4.59949 5.0288 4.58002C5.46046 4.5657 5.87801 4.55762 6.277 4.55762C7.45981 4.55762 8.5339 4.64321 9.49955 4.81923C10.4664 4.9929 11.2955 5.28118 11.9858 5.67701C12.678 6.07665 13.2147 6.60896 13.5987 7.27455C13.9816 7.93982 14.1732 8.77214 14.1732 9.76928V10.2194C14.1732 11.0334 13.9896 11.7647 13.6236 12.412C13.2567 13.0611 12.74 13.5504 12.0739 13.8845C12.74 14.2151 13.2766 14.6983 13.6843 15.3292C14.0947 15.961 14.2971 16.7113 14.2971 17.5747V17.9495ZM10.0505 10.0442C10.0505 9.36136 9.79519 8.8597 9.28743 8.53521C8.78069 8.21053 7.88451 8.04756 6.60132 8.04756C6.5015 8.04756 6.36528 8.04756 6.18892 8.04756C6.01468 8.04756 5.83007 8.04756 5.63933 8.04756C5.44873 8.04756 5.26631 8.05093 5.08995 8.05908C4.91545 8.069 4.78548 8.07333 4.70339 8.07333V12.3866H7.50163C8.00236 12.3866 8.41366 12.3335 8.73791 12.2246C9.06351 12.1169 9.32203 11.9764 9.51276 11.8014C9.70336 11.6265 9.8421 11.4198 9.92522 11.1777C10.0088 10.9377 10.0505 10.6842 10.0505 10.4177V10.0442ZM10.1496 17.5747C10.1496 16.9757 9.95886 16.4557 9.57494 16.0162C9.19212 15.5744 8.50175 15.3558 7.50163 15.3558H4.70339V20.0181C4.80243 20.0181 4.94767 20.0181 5.13982 20.0181C5.33158 20.0181 5.53082 20.0234 5.7394 20.0305C5.94831 20.0395 6.1471 20.0437 6.34034 20.0437C6.52998 20.0437 6.6682 20.0437 6.75281 20.0437C8.03432 20.0437 8.92149 19.852 9.41276 19.4696C9.90383 19.089 10.1496 18.5466 10.1496 17.8497V17.5747Z" fill="black"></path> <path d="M93.908 5.22595C93.908 5.24421 93.9061 5.26158 93.8957 5.278C93.8854 5.29417 93.8835 5.31962 93.8835 5.35131L90.1603 20.8136C90.0096 21.413 89.795 21.8965 89.5095 22.2604C89.228 22.6266 88.9 22.9045 88.523 23.0972C88.1473 23.2884 87.7498 23.4154 87.3238 23.4834C86.8999 23.5496 86.4713 23.5823 86.039 23.5823C85.6047 23.5823 85.1742 23.5496 84.738 23.4834C84.3037 23.4154 83.9003 23.2884 83.5272 23.0972C83.1516 22.9045 82.8236 22.6266 82.542 22.2604C82.2565 21.8965 82.04 21.413 81.8892 20.8136L78.1661 5.35131C78.1661 5.31962 78.1642 5.29823 78.1558 5.2899C78.1474 5.28175 78.1416 5.26158 78.1416 5.22595C78.1416 5.11293 78.1841 5.01537 78.2679 4.94117C78.3478 4.8669 78.4554 4.8291 78.592 4.8291H82.0626C82.1973 4.8291 82.3074 4.87168 82.3867 4.95211C82.4724 5.0358 82.5298 5.14462 82.5645 5.278L85.6884 19.668C85.7374 19.916 85.8553 20.0416 86.039 20.0416C86.2207 20.0416 86.3367 19.916 86.3876 19.668L89.5095 5.278C89.5463 5.14462 89.5991 5.0358 89.6745 4.95211C89.748 4.87168 89.8523 4.8291 89.987 4.8291H93.484C93.7656 4.8291 93.908 4.96261 93.908 5.22595Z" fill="black"></path> <path d="M122.657 41.9999C115.892 41.9999 112.449 40.0476 109.119 38.1589C105.777 36.2592 102.322 34.2963 95.5159 34.2963C88.7088 34.2963 85.2531 36.2592 81.912 38.1579C78.5839 40.0476 75.1423 41.9999 68.3732 41.9999C61.6065 41.9999 58.1653 40.0476 54.8375 38.1589C51.4943 36.2592 48.0392 34.2963 41.2345 34.2963C34.4299 34.2963 30.9744 36.2592 27.633 38.1579C24.3036 40.0476 20.8625 41.9999 14.096 41.9999C7.32872 41.9999 3.88773 40.0476 0.560471 38.1579L0 37.8444L2.06571 34.2222L2.62245 34.5343C5.74132 36.3049 8.43342 37.832 14.096 37.832C19.7581 37.832 22.4499 36.3048 25.5668 34.5351C29.0232 32.5727 33.3246 30.1284 41.2345 30.1284C49.1443 30.1284 53.4457 32.5727 56.9015 34.5351C60.0191 36.3048 62.7106 37.832 68.3732 37.832C74.0379 37.832 76.7294 36.304 79.8475 34.5351C83.3013 32.5727 87.6024 30.1284 95.5159 30.1284C103.427 30.1284 107.729 32.5727 111.184 34.5351C114.301 36.304 116.995 37.832 122.657 37.832C128.322 37.832 131.014 36.3048 134.13 34.5351L134.693 34.2212L136.75 37.8473L136.194 38.1589C132.867 40.0476 129.426 41.9999 122.657 41.9999Z" fill="black"></path> <path d="M15.5791 32.4742C15.5791 32.7316 15.7859 32.937 16.0424 32.937C16.2969 32.937 16.5039 32.7316 16.5039 32.4742C16.5039 32.2212 16.2969 32.0142 16.0424 32.0142C15.7859 32.0142 15.5791 32.2212 15.5791 32.4742Z" fill="#F4AD5B"></path> <path d="M14.9907 34.6518C13.623 34.6518 11.8905 33.7993 10.5306 32.971C9.74483 33.4591 9.04685 33.9611 8.56576 34.3426C8.47503 34.414 8.34204 34.3997 8.27064 34.3088C8.19815 34.2176 8.21297 34.0862 8.30318 34.0139C8.37348 33.9581 9.1118 33.3778 10.1359 32.7246C9.1118 32.0714 8.37348 31.4915 8.30318 31.4369C8.21297 31.3645 8.19815 31.2318 8.27064 31.1414C8.34204 31.0501 8.47503 31.0358 8.56576 31.1067C9.04685 31.4896 9.74483 31.9901 10.5306 32.4796C11.8905 31.6513 13.623 30.7974 14.9907 30.7974C17.7511 30.7974 18.555 32.5652 18.5886 32.6415C18.6127 32.6942 18.6127 32.7556 18.5886 32.8094C18.555 32.8835 17.7511 34.6518 14.9907 34.6518ZM10.9347 32.7246C12.2909 33.5268 13.8369 34.2327 14.9907 34.2327C17.1587 34.2327 17.9723 33.0577 18.1604 32.7256C17.9723 32.3921 17.1587 31.217 14.9907 31.217C13.8353 31.217 12.2909 31.9239 10.9347 32.7246Z" fill="#F4AD5B"></path> <path d="M27.1086 23.1837C27.1086 23.3178 27.0587 23.432 26.9587 23.5339C26.8584 23.6338 26.7426 23.6832 26.6094 23.6832H23.8113C23.6777 23.6832 23.5596 23.6338 23.4607 23.5339C23.3607 23.432 23.3102 23.3178 23.3102 23.1837V22.786C22.8274 23.1352 22.315 23.4087 21.7747 23.6071C21.2325 23.8083 20.5874 23.9072 19.8376 23.9072C19.289 23.9072 18.7583 23.8359 18.2506 23.6956C17.7427 23.5552 17.2887 23.3178 16.889 22.9853C16.4899 22.6518 16.1691 22.2132 15.9261 21.6618C15.685 21.1142 15.5654 20.4326 15.5654 19.6177V19.3927C15.5654 17.9291 16.0518 16.8631 17.0261 16.188C18.0002 15.5168 19.5633 15.1799 21.7105 15.1799H23.0599V14.2823C23.0599 13.566 22.8941 13.101 22.5618 12.8831C22.2279 12.6676 21.7702 12.5605 21.1859 12.5605C20.7862 12.5605 20.3826 12.5639 19.9745 12.5729C19.5669 12.58 19.1743 12.5943 18.8002 12.6106C18.4261 12.6257 18.0885 12.6462 17.7881 12.6726C17.4889 12.697 17.2382 12.7185 17.0385 12.7347H16.914C16.7794 12.7347 16.6725 12.7021 16.5889 12.6337C16.5051 12.5689 16.4634 12.4528 16.4634 12.2861V10.2651C16.4634 9.98226 16.6219 9.80121 16.9388 9.71759C17.4055 9.6017 18.0348 9.48467 18.8267 9.36879C19.6159 9.25176 20.429 9.19385 21.2625 9.19385C22.1623 9.19385 22.9742 9.28937 23.6976 9.48162C24.4225 9.67183 25.0342 9.97296 25.5349 10.3781C26.0346 10.7882 26.422 11.3103 26.6978 11.9492C26.972 12.5891 27.1086 13.3673 27.1086 14.2823V23.1837ZM23.1354 17.572H21.7105C21.2787 17.572 20.9213 17.611 20.6385 17.6852C20.3551 17.7603 20.1281 17.8721 19.9625 18.0205C19.7958 18.1723 19.679 18.3626 19.6123 18.5948C19.5456 18.8279 19.5133 19.0952 19.5133 19.3927V19.6177C19.5133 20.1495 19.6419 20.4897 19.8992 20.64C20.1573 20.7888 20.5528 20.8658 21.0872 20.8658C21.4709 20.8658 21.8318 20.8098 22.173 20.7032C22.5153 20.5944 22.8362 20.465 23.1354 20.3165V17.572Z" fill="black"></path> <path d="M34.3554 7.27482C34.3554 7.4061 34.3055 7.52313 34.2066 7.62158C34.1061 7.72155 33.9883 7.77336 33.855 7.77336H30.6081C30.4724 7.77336 30.3577 7.72155 30.2567 7.62158C30.1574 7.52313 30.1074 7.4061 30.1074 7.27482V4.95279C30.1074 4.82233 30.1574 4.70441 30.2567 4.60584C30.3577 4.5051 30.4724 4.45508 30.6081 4.45508H33.855C33.9883 4.45508 34.1061 4.5051 34.2066 4.60584C34.3055 4.70441 34.3554 4.82233 34.3554 4.95279V7.27482ZM34.2565 23.1838C34.2565 23.318 34.2066 23.4322 34.1061 23.5341C34.0063 23.6339 33.8894 23.6834 33.7559 23.6834H30.7075C30.5738 23.6834 30.4592 23.6339 30.3577 23.5341C30.2567 23.4322 30.2079 23.318 30.2079 23.1838V9.89275C30.2079 9.75962 30.2567 9.64246 30.3577 9.54287C30.4592 9.4441 30.5738 9.39319 30.7075 9.39319H33.7559C33.8894 9.39319 34.0063 9.4441 34.1061 9.54287C34.2066 9.64246 34.2565 9.75962 34.2565 9.89275V23.1838Z" fill="black"></path> <path d="M49.7989 9.66643C49.7989 9.75024 49.7641 9.83348 49.6984 9.91697L45.0502 16.226L49.6735 23.1584C49.7059 23.1925 49.7238 23.2568 49.7238 23.3596C49.7238 23.5736 49.6152 23.6831 49.3992 23.6831H45.6247C45.4911 23.6831 45.379 23.6616 45.2888 23.6212C45.1954 23.5774 45.1001 23.4828 45.0013 23.3334L41.4032 17.4734V23.1584C41.4032 23.2916 41.3532 23.4138 41.2528 23.5204C41.1514 23.6284 41.0361 23.6831 40.901 23.6831H37.8801C37.7454 23.6831 37.6251 23.6284 37.5166 23.5204C37.4079 23.4138 37.3545 23.2916 37.3545 23.1584V5.05516C37.3545 4.92101 37.4079 4.80493 37.5166 4.70413C37.6251 4.60556 37.7454 4.55566 37.8801 4.55566H40.901C41.0361 4.55566 41.1514 4.60556 41.2528 4.70413C41.3532 4.80493 41.4032 4.92101 41.4032 5.05516V15.4779L45.2005 9.76634C45.2993 9.61806 45.4089 9.51713 45.5257 9.46807C45.6425 9.41722 45.7512 9.39291 45.85 9.39291H49.423C49.6735 9.39291 49.7989 9.48455 49.7989 9.66643Z" fill="black"></path> <path d="M62.5925 23.1837C62.5925 23.3178 62.541 23.432 62.4411 23.5339C62.3407 23.6338 62.225 23.6832 62.0912 23.6832H59.2921C59.16 23.6832 59.0419 23.6338 58.9439 23.5339C58.844 23.432 58.7941 23.3178 58.7941 23.1837V22.786C58.3108 23.1352 57.7968 23.4087 57.2561 23.6071C56.7146 23.8083 56.0698 23.9072 55.3199 23.9072C54.7688 23.9072 54.2407 23.8359 53.7328 23.6956C53.2252 23.5552 52.772 23.3178 52.3712 22.9853C51.9706 22.6518 51.6499 22.2132 51.4092 21.6618C51.1671 21.1142 51.0469 20.4326 51.0469 19.6177V19.3927C51.0469 17.9291 51.5341 16.8631 52.5085 16.188C53.4837 15.5168 55.0457 15.1799 57.1938 15.1799H58.5438V14.2823C58.5438 13.566 58.3777 13.101 58.0442 12.8831C57.7089 12.6676 57.2511 12.5605 56.6692 12.5605C56.2702 12.5605 55.8642 12.5639 55.4571 12.5729C55.0478 12.58 54.6581 12.5943 54.2825 12.6106C53.9084 12.6257 53.5709 12.6462 53.2705 12.6726C52.9713 12.697 52.7206 12.7185 52.5216 12.7347H52.3962C52.2627 12.7347 52.1546 12.7021 52.0695 12.6337C51.9873 12.5689 51.9458 12.4528 51.9458 12.2861V10.2651C51.9458 9.98226 52.1042 9.80121 52.4212 9.71759C52.8878 9.6017 53.5173 9.48467 54.3074 9.36879C55.0992 9.25176 55.9112 9.19385 56.7442 9.19385C57.6435 9.19385 58.455 9.28937 59.1798 9.48162C59.9049 9.67183 60.5166 9.97296 61.0162 10.3781C61.5157 10.7882 61.9033 11.3103 62.1785 11.9492C62.4538 12.5891 62.5925 13.3673 62.5925 14.2823V23.1837ZM58.6187 17.572H57.1938C56.7599 17.572 56.4021 17.611 56.1198 17.6852C55.8348 17.7603 55.6105 17.8721 55.4448 18.0205C55.2781 18.1723 55.1612 18.3626 55.0945 18.5948C55.0278 18.8279 54.9956 19.0952 54.9956 19.3927V19.6177C54.9956 20.1495 55.1231 20.4897 55.3815 20.64C55.6406 20.7888 56.0361 20.8658 56.5693 20.8658C56.9517 20.8658 57.3157 20.8098 57.6567 20.7032C57.9962 20.5944 58.317 20.465 58.6187 20.3165V17.572Z" fill="black"></path> <path d="M69.5021 23.5204C69.4119 23.6284 69.2985 23.6831 69.1664 23.6831H66.1166C65.982 23.6831 65.8627 23.6284 65.7545 23.5204C65.6462 23.4138 65.5908 23.2916 65.5908 23.1584V5.05516C65.5908 4.92101 65.6462 4.80493 65.7545 4.70413C65.8627 4.60556 65.982 4.55566 66.1166 4.55566H69.1664C69.2985 4.55566 69.4119 4.60556 69.5021 4.70413C69.593 4.80493 69.6381 4.92101 69.6381 5.05516V23.1584C69.6381 23.2916 69.593 23.4138 69.5021 23.5204Z" fill="black"></path> <path d="M100.524 7.27482C100.524 7.4061 100.473 7.52313 100.375 7.62158C100.275 7.72155 100.157 7.77336 100.025 7.77336H96.7757C96.6398 7.77336 96.5251 7.72155 96.4252 7.62158C96.3253 7.52313 96.2764 7.4061 96.2764 7.27482V4.95279C96.2764 4.82233 96.3253 4.70441 96.4252 4.60584C96.5251 4.5051 96.6398 4.45508 96.7757 4.45508H100.025C100.157 4.45508 100.275 4.5051 100.375 4.60584C100.473 4.70441 100.524 4.82233 100.524 4.95279V7.27482ZM100.424 23.1838C100.424 23.318 100.375 23.4322 100.275 23.5341C100.174 23.6339 100.057 23.6834 99.9248 23.6834H96.8763C96.7416 23.6834 96.625 23.6339 96.5251 23.5341C96.4252 23.4322 96.3762 23.318 96.3762 23.1838V9.89275C96.3762 9.75962 96.4252 9.64246 96.5251 9.54287C96.625 9.4441 96.7416 9.39319 96.8763 9.39319H99.9248C100.057 9.39319 100.174 9.4441 100.275 9.54287C100.375 9.64246 100.424 9.75962 100.424 9.89275V23.1838Z" fill="black"></path> <path d="M115.643 17.199C115.643 17.5985 115.466 17.7979 115.117 17.7979H107.144V17.846C107.144 18.1918 107.187 18.5315 107.273 18.8612C107.355 19.1908 107.497 19.4768 107.697 19.7252C107.895 19.9726 108.157 20.1709 108.484 20.3174C108.808 20.4659 109.22 20.5414 109.719 20.5414C110.117 20.5414 110.545 20.531 110.996 20.5149C111.445 20.5006 111.889 20.482 112.332 20.465C112.77 20.4506 113.184 20.4283 113.569 20.4031C113.951 20.3798 114.267 20.3494 114.515 20.3165H114.593C114.909 20.3165 115.068 20.4506 115.068 20.7165V22.6252C115.068 22.8265 115.035 22.9782 114.968 23.0781C114.899 23.179 114.76 23.254 114.544 23.305C113.741 23.5052 112.958 23.656 112.192 23.7555C111.428 23.8573 110.5 23.9072 109.422 23.9072C108.672 23.9072 107.921 23.7983 107.17 23.5827C106.422 23.3659 105.748 23.0086 105.148 22.51C104.546 22.0129 104.065 21.3511 103.698 20.5281C103.333 19.7057 103.149 18.6956 103.149 17.4997V15.7528C103.149 14.7546 103.288 13.8488 103.573 13.0339C103.857 12.2189 104.269 11.5301 104.811 10.9642C105.352 10.3992 106.012 9.96297 106.795 9.65668C107.579 9.34747 108.472 9.19385 109.471 9.19385C110.488 9.19385 111.381 9.3595 112.156 9.69328C112.931 10.0248 113.575 10.4821 114.093 11.0649C114.611 11.6448 114.995 12.336 115.256 13.1348C115.513 13.9314 115.643 14.8034 115.643 15.7528V17.199ZM111.694 15.2042C111.694 14.2732 111.496 13.5803 111.094 13.1225C110.696 12.6655 110.146 12.4354 109.444 12.4354C108.747 12.4354 108.188 12.6676 107.772 13.1348C107.355 13.6004 107.144 14.2894 107.144 15.2042V15.3041H111.694V15.2042Z" fill="black"></path> <path d="M137.155 9.91712L134.934 21.9382C134.796 22.6519 134.528 23.1219 134.12 23.3455C133.711 23.5714 133.248 23.6833 132.732 23.6833H131.209C130.609 23.6833 130.144 23.5357 129.81 23.2479C129.475 22.9559 129.243 22.569 129.11 22.0863L127.436 15.5776C127.418 15.4964 127.377 15.4535 127.312 15.4535C127.242 15.4535 127.202 15.4964 127.185 15.5776L125.509 22.0863C125.381 22.569 125.144 22.9559 124.812 23.2479C124.479 23.5357 124.012 23.6833 123.413 23.6833H121.888C121.623 23.6833 121.372 23.658 121.139 23.6071C120.904 23.5571 120.695 23.4687 120.501 23.3455C120.312 23.2214 120.144 23.0443 120.002 22.8103C119.863 22.5786 119.757 22.2864 119.689 21.9382L117.465 9.91712V9.81651C117.465 9.70145 117.498 9.60173 117.563 9.51729C117.632 9.435 117.724 9.39307 117.842 9.39307H120.862C121.013 9.39307 121.129 9.41738 121.212 9.46822C121.296 9.51729 121.356 9.63336 121.386 9.81651L122.862 19.2928C122.897 19.5096 122.944 19.6177 123.011 19.6177C123.095 19.6177 123.16 19.5096 123.213 19.2928L124.887 12.7092C125.003 12.278 125.164 11.984 125.374 11.8241C125.583 11.6661 125.889 11.587 126.284 11.587H128.338C128.733 11.587 129.037 11.6661 129.245 11.8241C129.455 11.984 129.618 12.278 129.734 12.7092L131.408 19.2928C131.459 19.5096 131.524 19.6177 131.61 19.6177C131.675 19.6177 131.722 19.5096 131.759 19.2928L133.234 9.81651C133.268 9.63336 133.323 9.51729 133.406 9.46822C133.493 9.41738 133.606 9.39307 133.756 9.39307H136.782C136.896 9.39307 136.992 9.435 137.057 9.51729C137.124 9.60173 137.155 9.70145 137.155 9.81651V9.91712Z" fill="black"></path> <path d="M112.517 0.868274C112.517 0.966594 112.462 1.01572 112.351 1.01572H110.897V5.98781C110.897 6.03286 110.882 6.07104 110.849 6.10382C110.817 6.13525 110.777 6.15161 110.731 6.15161H109.913C109.867 6.15161 109.829 6.13525 109.795 6.10382C109.764 6.07104 109.747 6.03286 109.747 5.98781V1.01572H108.294C108.182 1.01572 108.127 0.966594 108.127 0.868274V0.219805C108.127 0.177486 108.144 0.140639 108.177 0.110602C108.208 0.0792284 108.247 0.0642092 108.294 0.0642092H112.351C112.397 0.0642092 112.437 0.0792284 112.469 0.110602C112.502 0.140639 112.517 0.177486 112.517 0.219805V0.868274ZM116.506 3.59598L117.807 5.98781C117.821 6.00416 117.827 6.02465 117.827 6.05195C117.827 6.11884 117.794 6.15161 117.726 6.15161H116.714C116.675 6.15161 116.647 6.13933 116.628 6.1161C116.61 6.09154 116.539 5.96865 116.414 5.74751L115.352 3.79937H115.239C115.088 3.79937 114.841 3.78982 114.498 3.76799V5.98781C114.498 6.03286 114.484 6.07104 114.454 6.10382C114.425 6.13525 114.386 6.15161 114.341 6.15161H113.514C113.468 6.15161 113.429 6.13525 113.397 6.10382C113.364 6.07104 113.348 6.03286 113.348 5.98781V0.352236C113.348 0.263525 113.38 0.199314 113.443 0.158395C113.507 0.117412 113.728 0.0805673 114.108 0.0477936C114.487 0.0164201 114.864 0 115.239 0C116.006 0 116.595 0.156993 117.007 0.469646C117.419 0.783636 117.625 1.24374 117.625 1.85262V1.92358C117.625 2.74546 117.252 3.30242 116.506 3.59598ZM116.483 1.92358V1.85262C116.483 1.54818 116.381 1.32564 116.175 1.1864C115.97 1.04576 115.658 0.97614 115.239 0.97614C114.975 0.97614 114.727 0.987086 114.498 1.00751V2.85193C114.809 2.86828 115.056 2.87649 115.239 2.87649C115.695 2.87649 116.017 2.8028 116.204 2.65535C116.389 2.50924 116.483 2.26487 116.483 1.92358ZM119.864 4.45604L119.617 5.45535C119.526 5.83488 119.476 6.0342 119.469 6.05329C119.463 6.07378 119.445 6.09561 119.416 6.1175C119.389 6.14066 119.358 6.15161 119.325 6.15161H118.447C118.347 6.15161 118.297 6.10522 118.297 6.01097C118.297 6.0069 118.3 5.99321 118.305 5.97139L119.665 0.8355C119.812 0.278543 120.196 0 120.821 0C121.442 0 121.824 0.278543 121.971 0.8355L123.339 6.01097C123.339 6.10522 123.29 6.15161 123.189 6.15161H122.311C122.227 6.15161 122.174 6.10655 122.152 6.01511L121.772 4.45604H119.864ZM121.549 3.52362L121.124 1.79255C120.996 1.28058 120.926 1.01299 120.909 0.992495C120.893 0.970667 120.864 0.959785 120.821 0.959785C120.756 0.959785 120.716 0.982949 120.702 1.028L120.087 3.52362H121.549ZM127.753 0.0642092C127.853 0.0642092 127.903 0.110604 127.903 0.204788C127.903 0.211597 127.9 0.225277 127.894 0.244368L126.534 5.38026C126.39 5.93728 126.008 6.21576 125.384 6.21576C124.763 6.21576 124.378 5.93728 124.23 5.38026L122.861 0.204788C122.861 0.110604 122.911 0.0642092 123.011 0.0642092H123.889C123.973 0.0642092 124.025 0.110604 124.047 0.204788L125.25 5.12774C125.272 5.21505 125.316 5.26011 125.384 5.26011C125.451 5.26011 125.496 5.21505 125.517 5.12774L126.716 0.204788C126.738 0.110604 126.79 0.0642092 126.874 0.0642092H127.753ZM132.059 5.9318C132.059 5.99869 132.041 6.04241 132.008 6.06557C131.975 6.0888 131.801 6.11884 131.489 6.15708C131.175 6.19666 130.785 6.21576 130.318 6.21576C129.615 6.21576 129.12 6.07792 128.833 5.80211C128.546 5.52497 128.401 5.10451 128.401 4.53928V1.68061C128.401 1.11264 128.546 0.689452 128.833 0.413646C129.12 0.137903 129.615 0 130.318 0C130.706 0 131.079 0.0191537 131.437 0.056C131.795 0.0928462 131.987 0.126957 132.016 0.155658C132.044 0.185695 132.059 0.229351 132.059 0.288088V0.812336C132.059 0.857392 132.043 0.895574 132.011 0.928348C131.978 0.959785 131.939 0.97614 131.893 0.97614H130.2C129.948 0.97614 129.777 1.028 129.683 1.1318C129.59 1.23553 129.543 1.41849 129.543 1.68061V2.56384H131.791C131.838 2.56384 131.877 2.58026 131.909 2.61163C131.942 2.6444 131.957 2.68265 131.957 2.72771V3.3161C131.957 3.36116 131.942 3.39934 131.909 3.43211C131.877 3.46355 131.838 3.4799 131.791 3.4799H129.543V4.53928C129.543 4.80141 129.59 4.98436 129.683 5.08809C129.777 5.19189 129.948 5.24375 130.2 5.24375H131.893C131.939 5.24375 131.978 5.26011 132.011 5.29154C132.043 5.32432 132.059 5.3625 132.059 5.40756V5.9318ZM136.672 5.9318C136.672 6.0069 136.642 6.05603 136.582 6.08199C136.523 6.10655 136.332 6.13525 136.011 6.16796C135.69 6.1994 135.385 6.21576 135.096 6.21576C134.394 6.21576 133.899 6.07792 133.612 5.80211C133.324 5.52497 133.181 5.10451 133.181 4.53928V0.228015C133.181 0.182959 133.197 0.144711 133.229 0.111938C133.262 0.0805641 133.3 0.0642092 133.346 0.0642092H134.165C134.21 0.0642092 134.25 0.0805641 134.282 0.111938C134.315 0.144711 134.331 0.182959 134.331 0.228015V4.53928C134.331 4.80141 134.376 4.98436 134.469 5.08809C134.56 5.19189 134.73 5.24375 134.979 5.24375H136.505C136.552 5.24375 136.591 5.26011 136.622 5.29154C136.656 5.32432 136.672 5.3625 136.672 5.40756V5.9318ZM140.954 5.9318C140.954 6.0069 140.923 6.05603 140.863 6.08199C140.804 6.10655 140.613 6.13525 140.293 6.16796C139.972 6.1994 139.666 6.21576 139.378 6.21576C138.675 6.21576 138.18 6.07792 137.893 5.80211C137.605 5.52497 137.462 5.10451 137.462 4.53928V0.228015C137.462 0.182959 137.478 0.144711 137.51 0.111938C137.543 0.0805641 137.582 0.0642092 137.627 0.0642092H138.446C138.491 0.0642092 138.531 0.0805641 138.563 0.111938C138.597 0.144711 138.611 0.182959 138.611 0.228015V4.53928C138.611 4.80141 138.657 4.98436 138.75 5.08809C138.841 5.19189 139.011 5.24375 139.26 5.24375H140.786C140.833 5.24375 140.872 5.26011 140.903 5.29154C140.937 5.32432 140.954 5.3625 140.954 5.40756V5.9318ZM145.4 5.9318C145.4 5.99869 145.382 6.04241 145.349 6.06557C145.316 6.0888 145.142 6.11884 144.829 6.15708C144.516 6.19666 144.126 6.21576 143.659 6.21576C142.956 6.21576 142.461 6.07792 142.174 5.80211C141.887 5.52497 141.742 5.10451 141.742 4.53928V1.68061C141.742 1.11264 141.887 0.689452 142.174 0.413646C142.461 0.137903 142.956 0 143.659 0C144.047 0 144.42 0.0191537 144.778 0.056C145.136 0.0928462 145.328 0.126957 145.357 0.155658C145.385 0.185695 145.4 0.229351 145.4 0.288088V0.812336C145.4 0.857392 145.384 0.895574 145.352 0.928348C145.319 0.959785 145.28 0.97614 145.234 0.97614H143.541C143.289 0.97614 143.118 1.028 143.024 1.1318C142.931 1.23553 142.884 1.41849 142.884 1.68061V2.56384H145.132C145.179 2.56384 145.218 2.58026 145.25 2.61163C145.282 2.6444 145.298 2.68265 145.298 2.72771V3.3161C145.298 3.36116 145.282 3.39934 145.25 3.43211C145.218 3.46355 145.179 3.4799 145.132 3.4799H142.884V4.53928C142.884 4.80141 142.931 4.98436 143.024 5.08809C143.118 5.19189 143.289 5.24375 143.541 5.24375H145.234C145.28 5.24375 145.319 5.26011 145.352 5.29154C145.384 5.32432 145.4 5.3625 145.4 5.40756V5.9318ZM149.68 3.59598L150.981 5.98781C150.995 6.00416 151 6.02465 151 6.05195C151 6.11884 150.967 6.15161 150.899 6.15161H149.887C149.848 6.15161 149.821 6.13933 149.801 6.1161C149.783 6.09154 149.712 5.96865 149.588 5.74751L148.526 3.79937H148.412C148.262 3.79937 148.015 3.78982 147.672 3.76799V5.98781C147.672 6.03286 147.658 6.07104 147.627 6.10382C147.598 6.13525 147.56 6.15161 147.514 6.15161H146.687C146.641 6.15161 146.603 6.13525 146.57 6.10382C146.538 6.07104 146.522 6.03286 146.522 5.98781V0.352236C146.522 0.263525 146.553 0.199314 146.617 0.158395C146.68 0.117412 146.902 0.0805673 147.282 0.0477936C147.66 0.0164201 148.038 0 148.412 0C149.18 0 149.769 0.156993 150.18 0.469646C150.592 0.783636 150.798 1.24374 150.798 1.85262V1.92358C150.798 2.74546 150.425 3.30242 149.68 3.59598ZM149.656 1.92358V1.85262C149.656 1.54818 149.554 1.32564 149.348 1.1864C149.144 1.04576 148.831 0.97614 148.412 0.97614C148.149 0.97614 147.901 0.987086 147.672 1.00751V2.85193C147.982 2.86828 148.23 2.87649 148.412 2.87649C148.868 2.87649 149.191 2.8028 149.377 2.65535C149.562 2.50924 149.656 2.26487 149.656 1.92358Z" fill="#F4AD5B"></path> </svg> 