<?xml version="1.0" encoding="UTF-8"?> <svg xmlns="http://www.w3.org/2000/svg" width="151" height="38" viewBox="0 0 151 38" fill="none"> <path d="M14.2971 15.9026C14.2971 16.8742 14.0895 17.6797 13.6734 18.3204C13.2567 18.9614 12.6939 19.4697 11.9858 19.8448C11.2786 20.2209 10.446 20.483 9.48769 20.6302C8.53055 20.7772 7.51129 20.851 6.42604 20.851C6.01004 20.851 5.58585 20.8422 5.15148 20.8283C4.71866 20.8139 4.29815 20.7962 3.89142 20.7726C3.48141 20.7519 3.1033 20.7267 2.75399 20.695C2.40474 20.6672 2.10459 20.6302 1.85374 20.585C1.353 20.5121 1.00041 20.3793 0.79292 20.1876C0.582986 19.9975 0.480469 19.6501 0.480469 19.1481V5.71704C0.480469 5.21486 0.579184 4.86963 0.778679 4.67866C0.980044 4.48736 1.32104 4.35413 1.80387 4.27914C2.01986 4.25044 2.29977 4.2205 2.64187 4.19084C2.98287 4.16186 3.35757 4.13666 3.76487 4.11343C4.17417 4.09263 4.59488 4.0747 5.0288 4.05744C5.46046 4.04476 5.87801 4.0376 6.277 4.0376C7.45981 4.0376 8.5339 4.11343 9.49955 4.26938C10.4664 4.42325 11.2955 4.67866 11.9858 5.02936C12.678 5.38344 13.2147 5.85506 13.5987 6.44476C13.9816 7.03418 14.1732 7.7716 14.1732 8.65506V9.05385C14.1732 9.77503 13.9896 10.423 13.6236 10.9965C13.2567 11.5715 12.74 12.0051 12.0739 12.3011C12.74 12.594 13.2766 13.0221 13.6843 13.5811C14.0947 14.1409 14.2971 14.8056 14.2971 15.5706V15.9026ZM10.0505 8.89863C10.0505 8.29365 9.79519 7.84919 9.28743 7.56169C8.78069 7.27403 7.88451 7.12964 6.60132 7.12964C6.5015 7.12964 6.36528 7.12964 6.18892 7.12964C6.01468 7.12964 5.83007 7.12964 5.63933 7.12964C5.44873 7.12964 5.26631 7.13262 5.08995 7.13984C4.91545 7.14864 4.78548 7.15247 4.70339 7.15247V10.9739H7.50163C8.00236 10.9739 8.41366 10.9269 8.73791 10.8304C9.06351 10.735 9.32203 10.6106 9.51276 10.4555C9.70336 10.3005 9.8421 10.1174 9.92522 9.90291C10.0088 9.69023 10.0505 9.46566 10.0505 9.22959V8.89863ZM10.1496 15.5706C10.1496 15.0399 9.95886 14.5791 9.57494 14.1898C9.19212 13.7984 8.50175 13.6047 7.50163 13.6047H4.70339V17.7354C4.80243 17.7354 4.94767 17.7354 5.13982 17.7354C5.33158 17.7354 5.53082 17.74 5.7394 17.7463C5.94831 17.7543 6.1471 17.7581 6.34034 17.7581C6.52998 17.7581 6.6682 17.7581 6.75281 17.7581C8.03432 17.7581 8.92149 17.5882 9.41276 17.2494C9.90383 16.9122 10.1496 16.4317 10.1496 15.8142V15.5706Z" fill="white"></path> <path d="M93.908 4.63041C93.908 4.64659 93.9061 4.66198 93.8957 4.67653C93.8854 4.69085 93.8835 4.7134 93.8835 4.74148L90.1603 18.4408C90.0096 18.9719 89.795 19.4002 89.5095 19.7227C89.228 20.0472 88.9 20.2933 88.523 20.4641C88.1473 20.6335 87.7498 20.746 87.3238 20.8062C86.8999 20.8649 86.4713 20.8939 86.039 20.8939C85.6047 20.8939 85.1742 20.8649 84.738 20.8062C84.3037 20.746 83.9003 20.6335 83.5272 20.4641C83.1516 20.2933 82.8236 20.0472 82.542 19.7227C82.2565 19.4002 82.04 18.9719 81.8892 18.4408L78.1661 4.74148C78.1661 4.7134 78.1642 4.69445 78.1558 4.68707C78.1474 4.67985 78.1416 4.66198 78.1416 4.63041C78.1416 4.53027 78.1841 4.44384 78.2679 4.3781C78.3478 4.3123 78.4554 4.27881 78.592 4.27881H82.0626C82.1973 4.27881 82.3074 4.31653 82.3867 4.3878C82.4724 4.46194 82.5298 4.55835 82.5645 4.67653L85.6884 17.4259C85.7374 17.6456 85.8553 17.7569 86.039 17.7569C86.2207 17.7569 86.3367 17.6456 86.3876 17.4259L89.5095 4.67653C89.5463 4.55835 89.5991 4.46194 89.6745 4.3878C89.748 4.31653 89.8523 4.27881 89.987 4.27881H93.484C93.7656 4.27881 93.908 4.3971 93.908 4.63041Z" fill="white"></path> <path d="M122.657 37.2113C115.892 37.2113 112.449 35.4816 109.119 33.8082C105.777 32.1251 102.322 30.3861 95.5159 30.3861C88.7088 30.3861 85.2531 32.1251 81.912 33.8074C78.5839 35.4816 75.1423 37.2113 68.3732 37.2113C61.6065 37.2113 58.1653 35.4816 54.8375 33.8082C51.4943 32.1251 48.0392 30.3861 41.2345 30.3861C34.4299 30.3861 30.9744 32.1251 27.633 33.8074C24.3036 35.4816 20.8625 37.2113 14.096 37.2113C7.32872 37.2113 3.88773 35.4816 0.560471 33.8074L0 33.5296L2.06571 30.3204L2.62245 30.5969C5.74132 32.1656 8.43342 33.5186 14.096 33.5186C19.7581 33.5186 22.4499 32.1656 25.5668 30.5977C29.0232 28.859 33.3246 26.6934 41.2345 26.6934C49.1443 26.6934 53.4457 28.859 56.9015 30.5977C60.0191 32.1656 62.7106 33.5186 68.3732 33.5186C74.0379 33.5186 76.7294 32.1648 79.8475 30.5977C83.3013 28.859 87.6024 26.6934 95.5159 26.6934C103.427 26.6934 107.729 28.859 111.184 30.5977C114.301 32.1648 116.995 33.5186 122.657 33.5186C128.322 33.5186 131.014 32.1656 134.13 30.5977L134.693 30.3195L136.75 33.5322L136.194 33.8082C132.867 35.4816 129.426 37.2113 122.657 37.2113Z" fill="white"></path> <path d="M15.5791 28.7714C15.5791 28.9994 15.7859 29.1814 16.0424 29.1814C16.2969 29.1814 16.5039 28.9994 16.5039 28.7714C16.5039 28.5472 16.2969 28.3638 16.0424 28.3638C15.7859 28.3638 15.5791 28.5472 15.5791 28.7714Z" fill="#F4AD5B"></path> <path d="M14.9907 30.7007C13.623 30.7007 11.8905 29.9453 10.5306 29.2115C9.74483 29.6439 9.04685 30.0886 8.56576 30.4267C8.47503 30.4899 8.34204 30.4773 8.27064 30.3968C8.19815 30.3159 8.21297 30.1995 8.30318 30.1355C8.37348 30.086 9.1118 29.5719 10.1359 28.9932C9.1118 28.4144 8.37348 27.9007 8.30318 27.8522C8.21297 27.7881 8.19815 27.6705 8.27064 27.5904C8.34204 27.5095 8.47503 27.4969 8.56576 27.5597C9.04685 27.8989 9.74483 28.3424 10.5306 28.7761C11.8905 28.0422 13.623 27.2856 14.9907 27.2856C17.7511 27.2856 18.555 28.8519 18.5886 28.9195C18.6127 28.9662 18.6127 29.0206 18.5886 29.0683C18.555 29.134 17.7511 30.7007 14.9907 30.7007ZM10.9347 28.9932C12.2909 29.7039 13.8369 30.3293 14.9907 30.3293C17.1587 30.3293 17.9723 29.2882 18.1604 28.994C17.9723 28.6986 17.1587 27.6574 14.9907 27.6574C13.8353 27.6574 12.2909 28.2838 10.9347 28.9932Z" fill="#F4AD5B"></path> <path d="M27.1086 20.5403C27.1086 20.6591 27.0587 20.7603 26.9587 20.8506C26.8584 20.9391 26.7426 20.9829 26.6094 20.9829H23.8113C23.6777 20.9829 23.5596 20.9391 23.4607 20.8506C23.3607 20.7603 23.3102 20.6591 23.3102 20.5403V20.188C22.8274 20.4973 22.315 20.7397 21.7747 20.9154C21.2325 21.0937 20.5874 21.1813 19.8376 21.1813C19.289 21.1813 18.7583 21.1181 18.2506 20.9938C17.7427 20.8695 17.2887 20.6591 16.889 20.3645C16.4899 20.0691 16.1691 19.6805 15.9261 19.192C15.685 18.7067 15.5654 18.1029 15.5654 17.3809V17.1815C15.5654 15.8849 16.0518 14.9403 17.0261 14.3422C18.0002 13.7475 19.5633 13.4491 21.7105 13.4491H23.0599V12.6538C23.0599 12.0192 22.8941 11.6072 22.5618 11.4141C22.2279 11.2232 21.7702 11.1284 21.1859 11.1284C20.7862 11.1284 20.3826 11.1313 19.9745 11.1393C19.5669 11.1456 19.1743 11.1583 18.8002 11.1727C18.4261 11.1861 18.0885 11.2042 17.7881 11.2276C17.4889 11.2493 17.2382 11.2683 17.0385 11.2826H16.914C16.7794 11.2826 16.6725 11.2537 16.5889 11.1932C16.5051 11.1357 16.4634 11.0329 16.4634 10.8852V9.09459C16.4634 8.84403 16.6219 8.68362 16.9388 8.60953C17.4055 8.50686 18.0348 8.40317 18.8267 8.3005C19.6159 8.19682 20.429 8.14551 21.2625 8.14551C22.1623 8.14551 22.9742 8.23014 23.6976 8.40047C24.4225 8.56899 25.0342 8.83579 25.5349 9.19478C26.0346 9.55811 26.422 10.0207 26.6978 10.5867C26.972 11.1537 27.1086 11.8432 27.1086 12.6538V20.5403ZM23.1354 15.5684H21.7105C21.2787 15.5684 20.9213 15.603 20.6385 15.6688C20.3551 15.7352 20.1281 15.8343 19.9625 15.9658C19.7958 16.1003 19.679 16.2689 19.6123 16.4746C19.5456 16.6811 19.5133 16.918 19.5133 17.1815V17.3809C19.5133 17.852 19.6419 18.1535 19.8992 18.2866C20.1573 18.4185 20.5528 18.4867 21.0872 18.4867C21.4709 18.4867 21.8318 18.4371 22.173 18.3426C22.5153 18.2462 22.8362 18.1316 23.1354 18V15.5684Z" fill="white"></path> <path d="M34.3554 6.44551C34.3554 6.56183 34.3055 6.66552 34.2066 6.75274C34.1061 6.84132 33.9883 6.88721 33.855 6.88721H30.6081C30.4724 6.88721 30.3577 6.84132 30.2567 6.75274C30.1574 6.66552 30.1074 6.56183 30.1074 6.44551V4.38823C30.1074 4.27265 30.1574 4.16817 30.2567 4.08084C30.3577 3.99158 30.4724 3.94727 30.6081 3.94727H33.855C33.9883 3.94727 34.1061 3.99158 34.2066 4.08084C34.3055 4.16817 34.3554 4.27265 34.3554 4.38823V6.44551ZM34.2565 20.5407C34.2565 20.6595 34.2066 20.7607 34.1061 20.851C34.0063 20.9395 33.8894 20.9833 33.7559 20.9833H30.7075C30.5738 20.9833 30.4592 20.9395 30.3577 20.851C30.2567 20.7607 30.2079 20.6595 30.2079 20.5407V8.76496C30.2079 8.64701 30.2567 8.54321 30.3577 8.45498C30.4592 8.36747 30.5738 8.32236 30.7075 8.32236H33.7559C33.8894 8.32236 34.0063 8.36747 34.1061 8.45498C34.2066 8.54321 34.2565 8.64701 34.2565 8.76496V20.5407Z" fill="white"></path> <path d="M49.7989 8.56469C49.7989 8.63894 49.7641 8.71269 49.6984 8.78666L45.0502 14.3763L49.6735 20.5184C49.7059 20.5486 49.7238 20.6056 49.7238 20.6966C49.7238 20.8863 49.6152 20.9833 49.3992 20.9833H45.6247C45.4911 20.9833 45.379 20.9643 45.2888 20.9285C45.1954 20.8896 45.1001 20.8058 45.0013 20.6734L41.4032 15.4816V20.5184C41.4032 20.6364 41.3532 20.7446 41.2528 20.8391C41.1514 20.9348 41.0361 20.9833 40.901 20.9833H37.8801C37.7454 20.9833 37.6251 20.9348 37.5166 20.8391C37.4079 20.7446 37.3545 20.6364 37.3545 20.5184V4.47916C37.3545 4.36031 37.4079 4.25747 37.5166 4.16816C37.6251 4.08082 37.7454 4.03662 37.8801 4.03662H40.901C41.0361 4.03662 41.1514 4.08082 41.2528 4.16816C41.3532 4.25747 41.4032 4.36031 41.4032 4.47916V13.7136L45.2005 8.65321C45.2993 8.52184 45.4089 8.43241 45.5257 8.38894C45.6425 8.34389 45.7512 8.32235 45.85 8.32235H49.423C49.6735 8.32235 49.7989 8.40354 49.7989 8.56469Z" fill="white"></path> <path d="M62.5925 20.5403C62.5925 20.6591 62.541 20.7603 62.4411 20.8506C62.3407 20.9391 62.225 20.9829 62.0912 20.9829H59.2921C59.16 20.9829 59.0419 20.9391 58.9439 20.8506C58.844 20.7603 58.7941 20.6591 58.7941 20.5403V20.188C58.3108 20.4973 57.7968 20.7397 57.2561 20.9154C56.7146 21.0937 56.0698 21.1813 55.3199 21.1813C54.7688 21.1813 54.2407 21.1181 53.7328 20.9938C53.2252 20.8695 52.772 20.6591 52.3712 20.3645C51.9706 20.0691 51.6499 19.6805 51.4092 19.192C51.1671 18.7067 51.0469 18.1029 51.0469 17.3809V17.1815C51.0469 15.8849 51.5341 14.9403 52.5085 14.3422C53.4837 13.7475 55.0457 13.4491 57.1938 13.4491H58.5438V12.6538C58.5438 12.0192 58.3777 11.6072 58.0442 11.4141C57.7089 11.2232 57.2511 11.1284 56.6692 11.1284C56.2702 11.1284 55.8642 11.1313 55.4571 11.1393C55.0478 11.1456 54.6581 11.1583 54.2825 11.1727C53.9084 11.1861 53.5709 11.2042 53.2705 11.2276C52.9713 11.2493 52.7206 11.2683 52.5216 11.2826H52.3962C52.2627 11.2826 52.1546 11.2537 52.0695 11.1932C51.9873 11.1357 51.9458 11.0329 51.9458 10.8852V9.09459C51.9458 8.84403 52.1042 8.68362 52.4212 8.60953C52.8878 8.50686 53.5173 8.40317 54.3074 8.3005C55.0992 8.19682 55.9112 8.14551 56.7442 8.14551C57.6435 8.14551 58.455 8.23014 59.1798 8.40047C59.9049 8.56899 60.5166 8.83579 61.0162 9.19478C61.5157 9.55811 61.9033 10.0207 62.1785 10.5867C62.4538 11.1537 62.5925 11.8432 62.5925 12.6538V20.5403ZM58.6187 15.5684H57.1938C56.7599 15.5684 56.4021 15.603 56.1198 15.6688C55.8348 15.7352 55.6105 15.8343 55.4448 15.9658C55.2781 16.1003 55.1612 16.2689 55.0945 16.4746C55.0278 16.6811 54.9956 16.918 54.9956 17.1815V17.3809C54.9956 17.852 55.1231 18.1535 55.3815 18.2866C55.6406 18.4185 56.0361 18.4867 56.5693 18.4867C56.9517 18.4867 57.3157 18.4371 57.6567 18.3426C57.9962 18.2462 58.317 18.1316 58.6187 18V15.5684Z" fill="white"></path> <path d="M69.5021 20.8391C69.4119 20.9348 69.2985 20.9833 69.1664 20.9833H66.1166C65.982 20.9833 65.8627 20.9348 65.7545 20.8391C65.6462 20.7446 65.5908 20.6364 65.5908 20.5184V4.47916C65.5908 4.36031 65.6462 4.25747 65.7545 4.16816C65.8627 4.08082 65.982 4.03662 66.1166 4.03662H69.1664C69.2985 4.03662 69.4119 4.08082 69.5021 4.16816C69.593 4.25747 69.6381 4.36031 69.6381 4.47916V20.5184C69.6381 20.6364 69.593 20.7446 69.5021 20.8391Z" fill="white"></path> <path d="M100.524 6.44551C100.524 6.56183 100.473 6.66552 100.375 6.75274C100.275 6.84132 100.157 6.88721 100.025 6.88721H96.7757C96.6398 6.88721 96.5251 6.84132 96.4252 6.75274C96.3253 6.66552 96.2764 6.56183 96.2764 6.44551V4.38823C96.2764 4.27265 96.3253 4.16817 96.4252 4.08084C96.5251 3.99158 96.6398 3.94727 96.7757 3.94727H100.025C100.157 3.94727 100.275 3.99158 100.375 4.08084C100.473 4.16817 100.524 4.27265 100.524 4.38823V6.44551ZM100.424 20.5407C100.424 20.6595 100.375 20.7607 100.275 20.851C100.174 20.9395 100.057 20.9833 99.9248 20.9833H96.8763C96.7416 20.9833 96.625 20.9395 96.5251 20.851C96.4252 20.7607 96.3762 20.6595 96.3762 20.5407V8.76496C96.3762 8.64701 96.4252 8.54321 96.5251 8.45498C96.625 8.36747 96.7416 8.32236 96.8763 8.32236H99.9248C100.057 8.32236 100.174 8.36747 100.275 8.45498C100.375 8.54321 100.424 8.64701 100.424 8.76496V20.5407Z" fill="white"></path> <path d="M115.643 15.2379C115.643 15.5919 115.466 15.7686 115.117 15.7686H107.144V15.8112C107.144 16.1176 107.187 16.4185 107.273 16.7106C107.355 17.0027 107.497 17.2561 107.697 17.4761C107.895 17.6953 108.157 17.871 108.484 18.0008C108.808 18.1324 109.22 18.1993 109.719 18.1993C110.117 18.1993 110.545 18.1901 110.996 18.1758C111.445 18.1632 111.889 18.1466 112.332 18.1316C112.77 18.1188 113.184 18.099 113.569 18.0767C113.951 18.0561 114.267 18.0291 114.515 18H114.593C114.909 18 115.068 18.1188 115.068 18.3544V20.0455C115.068 20.2238 115.035 20.3582 114.968 20.4467C114.899 20.5362 114.76 20.6026 114.544 20.6478C113.741 20.8252 112.958 20.9588 112.192 21.0469C111.428 21.1371 110.5 21.1813 109.422 21.1813C108.672 21.1813 107.921 21.0849 107.17 20.8939C106.422 20.7017 105.748 20.3852 105.148 19.9434C104.546 19.503 104.065 18.9167 103.698 18.1875C103.333 17.4588 103.149 16.5639 103.149 15.5043V13.9566C103.149 13.0723 103.288 12.2698 103.573 11.5477C103.857 10.8257 104.269 10.2154 104.811 9.714C105.352 9.21344 106.012 8.82694 106.795 8.55558C107.579 8.28161 108.472 8.14551 109.471 8.14551C110.488 8.14551 111.381 8.29227 112.156 8.58799C112.931 8.88175 113.575 9.28685 114.093 9.8032C114.611 10.317 114.995 10.9294 115.256 11.6371C115.513 12.3429 115.643 13.1155 115.643 13.9566V15.2379ZM111.694 13.4706C111.694 12.6457 111.496 12.0319 111.094 11.6262C110.696 11.2213 110.146 11.0174 109.444 11.0174C108.747 11.0174 108.188 11.2232 107.772 11.6371C107.355 12.0497 107.144 12.6601 107.144 13.4706V13.5591H111.694V13.4706Z" fill="white"></path> <path d="M137.155 8.78657L134.934 19.4371C134.796 20.0694 134.528 20.4858 134.12 20.6839C133.711 20.8841 133.248 20.9832 132.732 20.9832H131.209C130.609 20.9832 130.144 20.8525 129.81 20.5975C129.475 20.3387 129.243 19.996 129.11 19.5683L127.436 13.8017C127.418 13.7297 127.377 13.6917 127.312 13.6917C127.242 13.6917 127.202 13.7297 127.185 13.8017L125.509 19.5683C125.381 19.996 125.144 20.3387 124.812 20.5975C124.479 20.8525 124.012 20.9832 123.413 20.9832H121.888C121.623 20.9832 121.372 20.9608 121.139 20.9157C120.904 20.8714 120.695 20.793 120.501 20.6839C120.312 20.5739 120.144 20.4171 120.002 20.2097C119.863 20.0044 119.757 19.7456 119.689 19.4371L117.465 8.78657V8.69743C117.465 8.59549 117.498 8.50714 117.563 8.43232C117.632 8.35942 117.724 8.32227 117.842 8.32227H120.862C121.013 8.32227 121.129 8.3438 121.212 8.38885C121.296 8.43232 121.356 8.53516 121.386 8.69743L122.862 17.0932C122.897 17.2854 122.944 17.3811 123.011 17.3811C123.095 17.3811 123.16 17.2854 123.213 17.0932L124.887 11.2603C125.003 10.8783 125.164 10.6178 125.374 10.4761C125.583 10.3362 125.889 10.266 126.284 10.266H128.338C128.733 10.266 129.037 10.3362 129.245 10.4761C129.455 10.6178 129.618 10.8783 129.734 11.2603L131.408 17.0932C131.459 17.2854 131.524 17.3811 131.61 17.3811C131.675 17.3811 131.722 17.2854 131.759 17.0932L133.234 8.69743C133.268 8.53516 133.323 8.43232 133.406 8.38885C133.493 8.3438 133.606 8.32227 133.756 8.32227H136.782C136.896 8.32227 136.992 8.35942 137.057 8.43232C137.124 8.50714 137.155 8.59549 137.155 8.69743V8.78657Z" fill="white"></path> <path d="M112.517 0.769278C112.517 0.856389 112.462 0.899916 112.351 0.899916H110.897V5.30511C110.897 5.34503 110.882 5.37886 110.849 5.4079C110.817 5.43575 110.777 5.45024 110.731 5.45024H109.913C109.867 5.45024 109.829 5.43575 109.795 5.4079C109.764 5.37886 109.747 5.34503 109.747 5.30511V0.899916H108.294C108.182 0.899916 108.127 0.856389 108.127 0.769278V0.194744C108.127 0.15725 108.144 0.124604 108.177 0.0979917C108.208 0.0701952 108.247 0.0568885 108.294 0.0568885H112.351C112.397 0.0568885 112.437 0.0701952 112.469 0.0979917C112.502 0.124604 112.517 0.15725 112.517 0.194744V0.769278ZM116.506 3.18599L117.807 5.30511C117.821 5.3196 117.827 5.33776 117.827 5.36194C117.827 5.4212 117.794 5.45024 117.726 5.45024H116.714C116.675 5.45024 116.647 5.43936 116.628 5.41878C116.61 5.39701 116.539 5.28814 116.414 5.09221L115.352 3.36618H115.239C115.088 3.36618 114.841 3.35773 114.498 3.33839V5.30511C114.498 5.34503 114.484 5.37886 114.454 5.4079C114.425 5.43575 114.386 5.45024 114.341 5.45024H113.514C113.468 5.45024 113.429 5.43575 113.397 5.4079C113.364 5.37886 113.348 5.34503 113.348 5.30511V0.312076C113.348 0.233479 113.38 0.17659 113.443 0.140336C113.507 0.104026 113.728 0.0713815 114.108 0.0423444C114.487 0.014548 114.864 0 115.239 0C116.006 0 116.595 0.139094 117.007 0.416099C117.419 0.69429 117.625 1.10193 117.625 1.6414V1.70426C117.625 2.43244 117.252 2.9259 116.506 3.18599ZM116.483 1.70426V1.6414C116.483 1.37167 116.381 1.1745 116.175 1.05113C115.97 0.926528 115.658 0.864846 115.239 0.864846C114.975 0.864846 114.727 0.874544 114.498 0.892643V2.52677C114.809 2.54126 115.056 2.54853 115.239 2.54853C115.695 2.54853 116.017 2.48324 116.204 2.3526C116.389 2.22315 116.483 2.00664 116.483 1.70426ZM119.864 3.94799L119.617 4.83336C119.526 5.16963 119.476 5.34621 119.469 5.36313C119.463 5.38128 119.445 5.40062 119.416 5.42002C119.389 5.44054 119.358 5.45024 119.325 5.45024H118.447C118.347 5.45024 118.297 5.40914 118.297 5.32563C118.297 5.32203 118.3 5.3099 118.305 5.29057L119.665 0.740242C119.812 0.246785 120.196 0 120.821 0C121.442 0 121.824 0.246785 121.971 0.740242L123.339 5.32563C123.339 5.40914 123.29 5.45024 123.189 5.45024H122.311C122.227 5.45024 122.174 5.41032 122.152 5.3293L121.772 3.94799H119.864ZM121.549 3.12188L121.124 1.58817C120.996 1.13458 120.926 0.897491 120.909 0.879336C120.893 0.859997 120.864 0.850356 120.821 0.850356C120.756 0.850356 120.716 0.870879 120.702 0.910798L120.087 3.12188H121.549ZM127.753 0.0568885C127.853 0.0568885 127.903 0.0979933 127.903 0.181439C127.903 0.187472 127.9 0.199592 127.894 0.216507L126.534 4.76683C126.39 5.26034 126.008 5.50707 125.384 5.50707C124.763 5.50707 124.378 5.26034 124.23 4.76683L122.861 0.181439C122.861 0.0979933 122.911 0.0568885 123.011 0.0568885H123.889C123.973 0.0568885 124.025 0.0979933 124.047 0.181439L125.25 4.54311C125.272 4.62046 125.316 4.66038 125.384 4.66038C125.451 4.66038 125.496 4.62046 125.517 4.54311L126.716 0.181439C126.738 0.0979933 126.79 0.0568885 126.874 0.0568885H127.753ZM132.059 5.2555C132.059 5.31475 132.041 5.35349 132.008 5.37401C131.975 5.39459 131.801 5.4212 131.489 5.45509C131.175 5.49016 130.785 5.50707 130.318 5.50707C129.615 5.50707 129.12 5.38495 128.833 5.14059C128.546 4.89504 128.401 4.52253 128.401 4.02174V1.489C128.401 0.985786 128.546 0.610844 128.833 0.366484C129.12 0.12218 129.615 0 130.318 0C130.706 0 131.079 0.0169699 131.437 0.0496152C131.795 0.0822605 131.987 0.112482 132.016 0.137911C132.044 0.164523 132.059 0.203201 132.059 0.255242V0.719718C132.059 0.759637 132.043 0.793466 132.011 0.822503C131.978 0.850356 131.939 0.864846 131.893 0.864846H130.2C129.948 0.864846 129.777 0.910798 129.683 1.00276C129.59 1.09466 129.543 1.25676 129.543 1.489V2.27152H131.791C131.838 2.27152 131.877 2.28607 131.909 2.31387C131.942 2.3429 131.957 2.37679 131.957 2.41671V2.93802C131.957 2.97794 131.942 3.01177 131.909 3.0408C131.877 3.06866 131.838 3.08315 131.791 3.08315H129.543V4.02174C129.543 4.25398 129.59 4.41608 129.683 4.50798C129.777 4.59994 129.948 4.64589 130.2 4.64589H131.893C131.939 4.64589 131.978 4.66038 132.011 4.68823C132.043 4.71727 132.059 4.7511 132.059 4.79102V5.2555ZM136.672 5.2555C136.672 5.32203 136.642 5.36555 136.582 5.38856C136.523 5.41032 136.332 5.43575 136.011 5.46473C135.69 5.49258 135.385 5.50707 135.096 5.50707C134.394 5.50707 133.899 5.38495 133.612 5.14059C133.324 4.89504 133.181 4.52253 133.181 4.02174V0.202018C133.181 0.162099 133.197 0.128212 133.229 0.0991751C133.262 0.0713787 133.3 0.0568885 133.346 0.0568885H134.165C134.21 0.0568885 134.25 0.0713787 134.282 0.0991751C134.315 0.128212 134.331 0.162099 134.331 0.202018V4.02174C134.331 4.25398 134.376 4.41608 134.469 4.50798C134.56 4.59994 134.73 4.64589 134.979 4.64589H136.505C136.552 4.64589 136.591 4.66038 136.622 4.68823C136.656 4.71727 136.672 4.7511 136.672 4.79102V5.2555ZM140.954 5.2555C140.954 5.32203 140.923 5.36555 140.863 5.38856C140.804 5.41032 140.613 5.43575 140.293 5.46473C139.972 5.49258 139.666 5.50707 139.378 5.50707C138.675 5.50707 138.18 5.38495 137.893 5.14059C137.605 4.89504 137.462 4.52253 137.462 4.02174V0.202018C137.462 0.162099 137.478 0.128212 137.51 0.0991751C137.543 0.0713787 137.582 0.0568885 137.627 0.0568885H138.446C138.491 0.0568885 138.531 0.0713787 138.563 0.0991751C138.597 0.128212 138.611 0.162099 138.611 0.202018V4.02174C138.611 4.25398 138.657 4.41608 138.75 4.50798C138.841 4.59994 139.011 4.64589 139.26 4.64589H140.786C140.833 4.64589 140.872 4.66038 140.903 4.68823C140.937 4.71727 140.954 4.7511 140.954 4.79102V5.2555ZM145.4 5.2555C145.4 5.31475 145.382 5.35349 145.349 5.37401C145.316 5.39459 145.142 5.4212 144.829 5.45509C144.516 5.49016 144.126 5.50707 143.659 5.50707C142.956 5.50707 142.461 5.38495 142.174 5.14059C141.887 4.89504 141.742 4.52253 141.742 4.02174V1.489C141.742 0.985786 141.887 0.610844 142.174 0.366484C142.461 0.12218 142.956 0 143.659 0C144.047 0 144.42 0.0169699 144.778 0.0496152C145.136 0.0822605 145.328 0.112482 145.357 0.137911C145.385 0.164523 145.4 0.203201 145.4 0.255242V0.719718C145.4 0.759637 145.384 0.793466 145.352 0.822503C145.319 0.850356 145.28 0.864846 145.234 0.864846H143.541C143.289 0.864846 143.118 0.910798 143.024 1.00276C142.931 1.09466 142.884 1.25676 142.884 1.489V2.27152H145.132C145.179 2.27152 145.218 2.28607 145.25 2.31387C145.282 2.3429 145.298 2.37679 145.298 2.41671V2.93802C145.298 2.97794 145.282 3.01177 145.25 3.0408C145.218 3.06866 145.179 3.08315 145.132 3.08315H142.884V4.02174C142.884 4.25398 142.931 4.41608 143.024 4.50798C143.118 4.59994 143.289 4.64589 143.541 4.64589H145.234C145.28 4.64589 145.319 4.66038 145.352 4.68823C145.384 4.71727 145.4 4.7511 145.4 4.79102V5.2555ZM149.68 3.18599L150.981 5.30511C150.995 5.3196 151 5.33776 151 5.36194C151 5.4212 150.967 5.45024 150.899 5.45024H149.887C149.848 5.45024 149.821 5.43936 149.801 5.41878C149.783 5.39701 149.712 5.28814 149.588 5.09221L148.526 3.36618H148.412C148.262 3.36618 148.015 3.35773 147.672 3.33839V5.30511C147.672 5.34503 147.658 5.37886 147.627 5.4079C147.598 5.43575 147.56 5.45024 147.514 5.45024H146.687C146.641 5.45024 146.603 5.43575 146.57 5.4079C146.538 5.37886 146.522 5.34503 146.522 5.30511V0.312076C146.522 0.233479 146.553 0.17659 146.617 0.140336C146.68 0.104026 146.902 0.0713815 147.282 0.0423444C147.66 0.014548 148.038 0 148.412 0C149.18 0 149.769 0.139094 150.18 0.416099C150.592 0.69429 150.798 1.10193 150.798 1.6414V1.70426C150.798 2.43244 150.425 2.9259 149.68 3.18599ZM149.656 1.70426V1.6414C149.656 1.37167 149.554 1.1745 149.348 1.05113C149.144 0.926528 148.831 0.864846 148.412 0.864846C148.149 0.864846 147.901 0.874544 147.672 0.892643V2.52677C147.982 2.54126 148.23 2.54853 148.412 2.54853C148.868 2.54853 149.191 2.48324 149.377 2.3526C149.562 2.22315 149.656 2.00664 149.656 1.70426Z" fill="#F4AD5B"></path> </svg> 