<?xml version="1.0" encoding="UTF-8"?> <svg xmlns="http://www.w3.org/2000/svg" width="1573" height="712" viewBox="0 0 1573 712" fill="none"> <path opacity="0.05" d="M1260.03 64L1213.46 104.063L1172.75 188.833L1148.22 275.124L1115.17 233.214L1051.56 319.071L1026.53 438.219L867 712H1573L1522.41 602.392L1505.93 526.203L1434.63 448.719L1423.21 458.586L1401.23 351.503L1364.7 258.451L1343.25 207.534V151.205L1260.03 64ZM1068.47 326.674L1115.62 263.031L1172.51 335.147L1185.05 392.707L1135.81 367.815L1089.84 399.342L1055.62 387.828L1068.47 326.674ZM1535.96 674.842L1544.7 693.896H898.511L1043.64 444.809L1051.86 405.669L1092.63 419.383L1137.2 388.815L1189.99 415.499L1203.91 479.432L1249.39 538.721L1324.72 639.124L1336.2 615.752L1391.04 588.235L1429.33 620.993L1464.51 590.308L1535.96 674.842ZM1433.19 473.892L1489.26 534.838L1504.92 607.189L1507.81 613.489L1466.48 564.592L1429.23 597.078L1393.68 566.673L1349.41 588.887L1385.76 514.897L1433.19 473.892ZM1407.51 472.155L1371.12 503.601L1321.49 604.646L1263.83 527.787L1220.75 471.63L1189.32 327.208L1162.07 292.666L1165.34 281.08L1221.01 233.178L1254.46 259.917L1281.82 236.002L1304.12 281.433L1384.04 357.912L1407.51 472.155ZM1347.93 265.285L1368.81 318.256L1319 270.58L1287.69 206.837L1253.96 236.328L1220.57 209.662L1174.27 249.508L1189.41 195.957L1228.14 115.306L1258.81 88.9286L1325.13 158.437V211.182L1347.93 265.285Z" fill="black"></path> <rect x="1573" y="712" width="1573" height="712" transform="rotate(-180 1573 712)" fill="url(#paint0_linear)" fill-opacity="0.9"></rect> <defs> <linearGradient id="paint0_linear" x1="2359.5" y1="712" x2="2359.5" y2="1424" gradientUnits="userSpaceOnUse"> <stop stop-color="white"></stop> <stop offset="1" stop-color="white" stop-opacity="0"></stop> </linearGradient> </defs> </svg> 