<?xml version="1.0" encoding="UTF-8"?> <svg xmlns="http://www.w3.org/2000/svg" width="1442" height="560" viewBox="0 0 1442 560" fill="none"> <g opacity="0.05"> <path d="M1389.64 123.333L1256.55 125.48L1128.94 66.0989L1128.42 65.984L1127.74 65.8362L1126.99 65.672L1126.46 65.557L993.31 68.005L865.699 8.62424C864.916 8.26533 864.063 8.08602 863.202 8.09944C862.341 8.11286 861.494 8.31868 860.723 8.7018C859.952 9.08493 859.276 9.63566 858.746 10.3137C858.215 10.9917 857.843 11.7799 857.656 12.6204L778.768 373.942C778.477 375.227 778.641 376.573 779.232 377.751C779.823 378.929 780.803 379.866 782.007 380.402L910.821 440.045L911.347 440.16L912.024 440.308L912.776 440.472L913.303 440.587L1046.45 438.139L1174.07 497.52L1175.27 497.783L1176.55 498.062L1310.98 495.893C1312.28 495.875 1313.54 495.417 1314.55 494.593C1315.56 493.769 1316.26 492.628 1316.54 491.355L1395.36 130.334C1395.56 129.485 1395.56 128.602 1395.36 127.753C1395.16 126.904 1394.78 126.111 1394.22 125.437C1393.66 124.77 1392.96 124.236 1392.17 123.873C1391.37 123.509 1390.51 123.325 1389.64 123.333V123.333ZM975.041 178.746C983.503 180.851 991.214 185.262 997.317 191.49C998.117 192.367 999.164 192.981 1000.32 193.249C1001.51 193.499 1002.76 193.365 1003.87 192.866C1004.98 192.367 1005.91 191.529 1006.51 190.472C1007.12 189.415 1007.38 188.193 1007.25 186.982C1007.12 185.77 1006.61 184.63 1005.79 183.726C998.206 175.735 988.525 170.043 977.855 167.304L997.018 79.5312L1119.19 77.9172L1069.53 305.36L1068.11 305.048C1066.61 304.762 1065.06 305.073 1063.78 305.914C1062.51 306.754 1061.62 308.059 1061.29 309.549C1061.13 310.287 1061.12 311.049 1061.25 311.791C1061.39 312.533 1061.67 313.241 1062.08 313.874C1062.49 314.506 1063.03 315.05 1063.65 315.475C1064.28 315.899 1064.98 316.196 1065.72 316.347L1067.07 316.642L1042.98 426.979L920.424 428.904L975.041 178.746ZM1243.43 158.545C1239.23 158.26 1234.84 158.168 1230.32 158.285C1228.91 158.308 1227.55 158.85 1226.51 159.807C1225.47 160.764 1224.82 162.071 1224.67 163.478C1224.53 164.885 1224.91 166.296 1225.74 167.442C1226.57 168.588 1227.79 169.39 1229.17 169.695L1230.6 170.007C1234.11 169.827 1237.55 169.948 1240.91 170.053L1224.67 244.438L1205.5 214.958C1204.67 213.807 1203.44 213.003 1202.05 212.7C1200.66 212.397 1199.21 212.616 1197.98 213.316L1147.68 245.2L1141.8 236.036C1140.97 234.749 1139.67 233.843 1138.17 233.516C1136.68 233.19 1135.11 233.47 1133.83 234.296L1090.57 262.045L1130.35 79.8799L1248.44 134.503L1243.43 158.545ZM1078.39 318.955C1084.18 320.22 1090.12 321.517 1096.4 322.337C1097.91 322.604 1099.46 322.26 1100.72 321.382C1101.98 320.503 1102.83 319.162 1103.1 317.653C1103.36 316.144 1103.02 314.59 1102.14 313.334C1101.26 312.079 1099.92 311.223 1098.41 310.957C1092.32 309.626 1086.51 308.83 1080.85 307.673L1088.27 273.677C1088.87 273.926 1089.51 274.065 1090.15 274.088C1090.89 274.253 1091.66 274.269 1092.4 274.134C1093.15 273.999 1093.86 273.717 1094.5 273.303L1135.38 247.4L1141.26 256.563L1155.95 279.472C1156.78 280.759 1158.09 281.665 1159.58 281.992C1161.08 282.318 1162.64 282.038 1163.93 281.212C1165.21 280.385 1166.12 279.081 1166.45 277.586C1166.77 276.091 1166.49 274.528 1165.67 273.24L1153.91 254.913L1199.18 225.87L1221.22 260.233L1209.1 315.74C1202.69 316.758 1196.23 317.451 1189.74 317.816C1188.19 317.696 1186.65 318.198 1185.47 319.211C1184.29 320.224 1183.56 321.665 1183.44 323.216C1183.32 324.768 1183.82 326.304 1184.83 327.486C1185.85 328.667 1187.29 329.398 1188.84 329.518C1189.32 329.699 1189.83 329.81 1190.34 329.846C1195.86 329.475 1201.19 328.904 1206.45 328.241L1172.45 484.007L1054.28 429.367L1078.39 318.955ZM867.328 22.4545L985.419 77.0775L909.126 426.516L791.035 371.893L867.328 22.4545ZM1306.23 484.454L1183.67 486.379L1218.73 325.799L1222.09 325.194C1223.41 324.874 1224.58 324.097 1225.39 323C1226.19 321.904 1226.58 320.558 1226.49 319.201C1226.4 317.843 1225.84 316.561 1224.89 315.58C1223.95 314.6 1222.69 313.984 1221.34 313.841L1252.54 170.936C1254.87 171.445 1257.13 171.938 1259.23 172.398L1259.99 172.562C1260.71 172.722 1261.46 172.732 1262.2 172.591C1262.93 172.45 1263.62 172.161 1264.24 171.742C1264.85 171.323 1265.38 170.782 1265.77 170.154C1266.17 169.526 1266.44 168.822 1266.56 168.087C1266.81 166.547 1266.47 164.968 1265.59 163.676C1264.71 162.385 1263.37 161.48 1261.85 161.149C1259.67 160.673 1257.26 160.147 1254.9 160.106L1259.83 137.542L1382.44 135.392L1306.23 484.454Z" fill="black"></path> <path d="M852.314 321.127L851.412 320.93C845.561 319.777 839.492 320.98 834.524 324.276C829.555 327.572 826.088 332.696 824.875 338.535C823.663 344.373 824.803 350.454 828.049 355.456C831.294 360.458 836.383 363.977 842.208 365.249C848.034 366.521 854.126 365.443 859.161 362.248C864.196 359.054 867.767 354.002 869.098 348.19C870.429 342.378 869.413 336.275 866.271 331.207C863.128 326.14 858.112 322.518 852.314 321.127V321.127ZM844.843 351.015C843.602 350.744 842.427 350.23 841.385 349.503C840.344 348.776 839.457 347.849 838.775 346.778C838.094 345.706 837.631 344.51 837.414 343.258C837.197 342.007 837.23 340.724 837.51 339.486C837.838 338.012 838.512 336.638 839.478 335.478C840.444 334.319 841.674 333.407 843.064 332.818C842.029 337.557 841.422 340.34 841.422 340.34C841.095 341.836 841.376 343.4 842.203 344.689C843.03 345.978 844.335 346.885 845.831 347.212C847.327 347.539 848.892 347.258 850.18 346.431C851.469 345.604 852.377 344.299 852.703 342.803C852.703 342.803 853.295 340.095 854.346 335.281C855.796 336.785 856.709 338.727 856.941 340.803C857.173 342.88 856.712 344.975 855.629 346.762C854.546 348.549 852.903 349.928 850.955 350.683C849.007 351.439 846.864 351.529 844.859 350.94L844.843 351.015Z" fill="black"></path> <path d="M1160.44 185.655C1161.27 186.942 1162.58 187.849 1164.07 188.175C1165.57 188.501 1167.13 188.221 1168.42 187.396L1177.58 181.516L1183.46 190.68C1184.29 191.967 1185.59 192.874 1187.09 193.2C1188.58 193.526 1190.14 193.246 1191.43 192.421C1192.72 191.594 1193.63 190.289 1193.95 188.794C1194.28 187.3 1194 185.736 1193.17 184.448L1187.71 175.926C1190.12 175.349 1194.45 174.248 1200.1 173.275C1200.87 173.149 1201.6 172.871 1202.26 172.455C1202.92 172.039 1203.48 171.496 1203.92 170.856C1204.36 170.217 1204.67 169.495 1204.83 168.734C1204.98 167.973 1204.98 167.188 1204.83 166.427C1204.7 165.66 1204.43 164.927 1204.01 164.27C1203.59 163.614 1203.05 163.048 1202.41 162.607C1201.77 162.166 1201.05 161.858 1200.29 161.702C1199.53 161.547 1198.74 161.546 1197.98 161.701V161.701C1197.15 160.414 1195.85 159.507 1194.36 159.181C1192.86 158.855 1191.3 159.135 1190.01 159.96L1180.85 165.839L1174.97 156.676C1174.11 155.446 1172.82 154.595 1171.35 154.302C1169.88 154.008 1168.36 154.296 1167.1 155.104C1165.84 155.912 1164.95 157.177 1164.6 158.632C1164.26 160.088 1164.49 161.621 1165.25 162.908L1171.13 172.071L1161.97 177.95C1160.79 178.806 1159.98 180.075 1159.69 181.504C1159.41 182.932 1159.68 184.415 1160.44 185.655Z" fill="black"></path> <path d="M1285.09 184.267C1291.83 190.468 1296.27 198.77 1297.68 207.818C1297.89 208.947 1298.43 209.989 1299.23 210.81C1300.03 211.631 1301.06 212.194 1302.19 212.427C1302.91 212.579 1303.66 212.582 1304.39 212.435C1305.16 212.31 1305.89 212.031 1306.55 211.615C1307.21 211.2 1307.77 210.656 1308.21 210.017C1308.65 209.377 1308.96 208.656 1309.12 207.894C1309.27 207.133 1309.27 206.349 1309.12 205.587C1307.2 194.093 1301.48 183.576 1292.87 175.721C1291.73 174.689 1290.24 174.151 1288.71 174.223C1287.18 174.295 1285.74 174.972 1284.71 176.106C1283.67 177.239 1283.14 178.735 1283.21 180.266C1283.28 181.796 1283.96 183.235 1285.09 184.267V184.267Z" fill="black"></path> <path d="M1297.12 236.695C1296.71 238.575 1296.29 240.53 1295.84 242.561C1294.22 250.161 1291.74 257.549 1288.44 264.583C1288.1 265.265 1287.9 266.007 1287.85 266.766C1287.8 267.525 1287.9 268.286 1288.15 269.006C1288.39 269.726 1288.78 270.39 1289.28 270.961C1289.78 271.531 1290.39 271.997 1291.08 272.331L1292.43 272.626C1293.7 272.876 1295.02 272.702 1296.19 272.13C1297.35 271.559 1298.29 270.622 1298.87 269.463C1302.57 261.664 1305.39 253.479 1307.28 245.057C1307.75 242.876 1308.23 240.695 1308.67 238.664C1308.92 237.157 1308.57 235.614 1307.69 234.363C1306.82 233.112 1305.49 232.252 1303.99 231.968C1303.23 231.811 1302.44 231.81 1301.68 231.964C1300.91 232.119 1300.19 232.426 1299.55 232.868C1298.91 233.309 1298.36 233.876 1297.95 234.534C1297.53 235.191 1297.25 235.926 1297.12 236.695V236.695Z" fill="black"></path> <path d="M1126.85 326.859L1127.46 326.99C1138.35 328.344 1148.95 329.24 1158.41 329.572C1159.94 329.697 1161.46 329.21 1162.63 328.216C1163.8 327.223 1164.53 325.806 1164.65 324.276C1164.78 322.746 1164.29 321.23 1163.29 320.06C1162.3 318.89 1160.88 318.162 1159.35 318.037C1149.76 317.597 1139.46 316.767 1128.42 315.38C1126.9 315.123 1125.35 315.477 1124.1 316.364C1122.85 317.251 1122.01 318.598 1121.75 320.11C1121.49 321.621 1121.85 323.173 1122.73 324.423C1123.62 325.673 1124.97 326.52 1126.48 326.777L1126.85 326.859Z" fill="black"></path> <path d="M901.656 207.715C901.024 207.258 900.305 206.934 899.544 206.763C898.782 206.591 897.994 206.576 897.227 206.718C896.459 206.86 895.728 207.156 895.078 207.588C894.429 208.02 893.873 208.579 893.445 209.232C887.608 218.063 882.338 227.256 877.665 236.754C877.318 237.429 877.108 238.166 877.049 238.923C876.99 239.679 877.083 240.44 877.322 241.16C877.562 241.88 877.942 242.545 878.442 243.117C878.942 243.688 879.55 244.153 880.233 244.486C880.665 244.658 881.122 244.758 881.586 244.781C882.838 245.062 884.147 244.919 885.308 244.373C886.468 243.827 887.414 242.911 887.997 241.768C892.504 232.705 897.602 223.947 903.255 215.55C904.051 214.29 904.33 212.771 904.032 211.311C903.734 209.851 902.883 208.562 901.656 207.715V207.715Z" fill="black"></path> <path d="M1022.59 244.993C1022.43 234.763 1021.52 224.558 1019.88 214.458C1019.74 213.713 1019.45 213.004 1019.03 212.37C1018.61 211.736 1018.08 211.19 1017.45 210.764C1016.82 210.338 1016.12 210.04 1015.37 209.886C1014.63 209.733 1013.86 209.727 1013.12 209.87C1012.37 210.013 1011.66 210.301 1011.03 210.717C1010.4 211.134 1009.85 211.672 1009.42 212.3C1009 212.927 1008.7 213.633 1008.55 214.376C1008.39 215.119 1008.39 215.885 1008.53 216.63C1010.05 226.172 1010.89 235.81 1011.06 245.47L1010.8 246.674C1010.84 247.946 1011.3 249.168 1012.11 250.146C1012.93 251.124 1014.05 251.8 1015.29 252.068C1015.75 252.25 1016.23 252.355 1016.72 252.38C1018.25 252.323 1019.69 251.665 1020.73 250.548C1021.77 249.432 1022.33 247.948 1022.28 246.422L1022.59 244.993Z" fill="black"></path> <path d="M1249.05 315.398C1250.31 315.673 1251.62 315.515 1252.77 314.95C1262.74 310.288 1271.87 304.032 1279.83 296.429C1280.37 295.901 1280.81 295.271 1281.11 294.575C1281.41 293.879 1281.57 293.13 1281.58 292.372C1281.59 291.613 1281.46 290.86 1281.18 290.155C1280.9 289.45 1280.48 288.806 1279.95 288.262C1279.43 287.717 1278.8 287.282 1278.1 286.98C1277.4 286.679 1276.65 286.518 1275.9 286.506C1275.14 286.494 1274.38 286.632 1273.68 286.911C1272.97 287.19 1272.33 287.606 1271.79 288.133C1264.73 294.868 1256.62 300.416 1247.79 304.564C1246.51 305.225 1245.53 306.339 1245.03 307.688C1244.53 309.036 1244.56 310.522 1245.1 311.855C1245.43 312.716 1245.96 313.485 1246.65 314.101C1247.33 314.716 1248.16 315.161 1249.05 315.398Z" fill="black"></path> <path d="M950.111 170.939C949.629 169.535 948.631 168.366 947.32 167.671C946.009 166.975 944.482 166.803 943.049 167.191C932.4 170.847 922.682 176.795 914.581 184.615C913.567 185.654 912.982 187.038 912.942 188.49C912.903 189.941 913.412 191.355 914.368 192.448C915.168 193.325 916.216 193.939 917.372 194.207C918.274 194.419 919.215 194.401 920.108 194.156C921.001 193.91 921.819 193.445 922.486 192.802C929.323 186.153 937.557 181.114 946.588 178.049C947.962 177.524 949.087 176.5 949.739 175.183C950.392 173.865 950.525 172.35 950.111 170.939V170.939Z" fill="black"></path> <path d="M1014.66 278.801C1015.89 284.563 1018.28 290.014 1021.69 294.822C1025.1 299.63 1029.45 303.694 1034.48 306.767C1035.04 306.959 1035.62 307.086 1036.21 307.145C1037.39 307.191 1038.56 306.87 1039.56 306.227C1040.56 305.584 1041.33 304.648 1041.78 303.549C1042.23 302.449 1042.32 301.239 1042.06 300.082C1041.79 298.925 1041.18 297.879 1040.3 297.084C1036.55 294.76 1033.33 291.673 1030.86 288.023C1028.38 284.374 1026.7 280.244 1025.93 275.903C1025.54 274.437 1024.59 273.182 1023.29 272.41C1021.98 271.638 1020.42 271.412 1018.95 271.779C1017.45 272.149 1016.16 273.093 1015.36 274.408C1014.56 275.723 1014.31 277.301 1014.66 278.801V278.801Z" fill="black"></path> <path d="M858.257 302.569C859.656 302.861 861.113 302.624 862.348 301.904C863.582 301.184 864.505 300.031 864.939 298.669C868.226 288.67 871.763 278.963 875.494 269.455C875.878 268.74 876.106 267.952 876.165 267.143C876.223 266.334 876.111 265.522 875.835 264.759C875.558 263.996 875.125 263.3 874.561 262.717C873.998 262.133 873.318 261.674 872.566 261.371C871.814 261.067 871.006 260.926 870.195 260.955C869.385 260.985 868.589 261.185 867.861 261.543C867.133 261.9 866.488 262.407 865.969 263.031C865.45 263.654 865.068 264.38 864.848 265.16C861.075 274.502 857.488 284.435 854.143 294.342C853.672 295.796 853.796 297.377 854.488 298.739C855.18 300.101 856.384 301.134 857.836 301.61L858.257 302.569Z" fill="black"></path> <path d="M1027.49 361.502C1028.32 362.79 1029.62 363.696 1031.11 364.022C1032.61 364.349 1034.17 364.068 1035.46 363.243C1036.75 362.416 1037.65 361.112 1037.98 359.617C1038.31 358.122 1038.03 356.559 1037.2 355.271L1025.44 336.944C1025.06 336.392 1024.57 335.913 1024.02 335.529V335.529C1023.47 335.291 1022.88 335.163 1022.29 335.152L1021.69 335.02C1021.25 334.852 1020.8 334.752 1020.33 334.725L1019.73 334.593C1019.05 334.717 1018.41 334.978 1017.83 335.36L999.504 347.119C998.596 347.698 997.875 348.525 997.424 349.502C996.973 350.479 996.812 351.565 996.961 352.631L987.848 338.428L989.293 331.809L993.526 338.407C994.353 339.694 995.657 340.6 997.152 340.927C998.647 341.253 1000.21 340.973 1001.5 340.147C1002.79 339.32 1003.69 338.016 1004.02 336.521C1004.34 335.026 1004.06 333.463 1003.24 332.175L991.481 313.848C991.093 313.296 990.611 312.817 990.056 312.434V312.434C989.51 312.195 988.922 312.067 988.326 312.056L987.348 311.842C986.915 311.674 986.459 311.574 985.995 311.547L985.393 311.415C984.714 311.539 984.067 311.8 983.492 312.182L965.165 323.941C963.935 324.792 963.084 326.088 962.791 327.555C962.497 329.022 962.785 330.546 963.593 331.805C964.401 333.064 965.666 333.961 967.122 334.306C968.577 334.65 970.11 334.417 971.397 333.654L977.995 329.421L976.55 336.04L960.239 346.504C959.009 347.356 958.158 348.652 957.864 350.119C957.571 351.586 957.859 353.11 958.666 354.369C959.474 355.628 960.739 356.525 962.195 356.869C963.651 357.214 965.184 356.981 966.471 356.218L973.068 351.985L971.623 358.603L964.476 363.189C963.246 364.041 962.395 365.337 962.101 366.804C961.808 368.271 962.096 369.794 962.903 371.054C963.711 372.313 964.976 373.209 966.432 373.554C967.888 373.899 969.421 373.665 970.708 372.902L977.305 368.669L975.86 375.288L959.549 385.753C958.319 386.605 957.468 387.901 957.175 389.368C956.882 390.835 957.169 392.358 957.977 393.617C958.785 394.877 960.05 395.773 961.506 396.118C962.962 396.463 964.494 396.229 965.781 395.466L972.379 391.233L970.458 400.033C970.131 401.529 970.412 403.094 971.239 404.383C972.066 405.671 973.371 406.579 974.867 406.906C976.363 407.232 977.928 406.951 979.216 406.124C980.505 405.297 981.413 403.992 981.739 402.496L983.694 393.546L987.927 400.144C988.754 401.431 990.058 402.337 991.553 402.664C993.048 402.99 994.611 402.71 995.899 401.884C997.186 401.057 998.093 399.753 998.419 398.258C998.746 396.763 998.465 395.2 997.64 393.912L987.175 377.601L988.62 370.982L992.853 377.58C993.68 378.867 994.984 379.773 996.479 380.1C997.974 380.426 999.537 380.146 1000.83 379.32L1007.42 375.087L1005.47 384.038C1005.14 385.534 1005.42 387.098 1006.25 388.387C1007.08 389.676 1008.38 390.584 1009.88 390.91C1011.37 391.237 1012.94 390.956 1014.23 390.129C1015.52 389.302 1016.42 387.997 1016.75 386.501L1018.71 377.551L1022.94 384.148C1023.77 385.436 1025.07 386.342 1026.56 386.668C1028.06 386.995 1029.62 386.714 1030.91 385.889C1032.2 385.062 1033.1 383.758 1033.43 382.263C1033.76 380.768 1033.48 379.205 1032.65 377.916L1022.19 361.606L1023.63 354.987L1027.49 361.502ZM999.074 366.409L996.429 362.286C997.397 361.624 998.127 360.669 998.511 359.561C998.895 358.453 998.912 357.251 998.56 356.132C999.484 356.948 1000.65 357.442 1001.88 357.539C1003.11 357.637 1004.33 357.334 1005.38 356.675L1011.97 352.442L1010.53 359.06L999.074 366.409Z" fill="black"></path> <path d="M908.204 123.964L913.754 98.5419L925.208 91.193L932.557 102.647L928.14 122.879C927.813 124.375 928.094 125.94 928.921 127.229C929.748 128.518 931.053 129.425 932.549 129.752C934.045 130.079 935.61 129.798 936.899 128.971C938.188 128.144 939.095 126.839 939.422 125.343L944.348 102.779C944.673 101.283 944.391 99.7192 943.564 98.4313L931.806 80.1044C930.979 78.8172 929.674 77.9108 928.179 77.5844C926.685 77.258 925.121 77.5383 923.833 78.3638L905.506 90.1221C904.217 90.9479 903.309 92.2518 902.981 93.7471L902.669 95.1761L898.436 88.5785C897.609 87.2912 896.305 86.3848 894.81 86.0584C893.315 85.732 891.752 86.0124 890.464 86.8378L872.137 98.5961C870.848 99.4219 869.94 100.726 869.612 102.221L864.685 124.785C864.359 126.281 864.64 127.846 865.467 129.134C866.294 130.423 867.599 131.331 869.095 131.657C870.591 131.984 872.155 131.703 873.444 130.876C874.733 130.049 875.641 128.744 875.967 127.248L880.385 107.016L891.839 99.667L899.188 111.121L896.922 121.501L880.611 131.965C879.322 132.791 878.414 134.095 878.086 135.59L873.159 158.154C872.833 159.65 873.114 161.215 873.941 162.504C874.768 163.793 876.073 164.7 877.569 165.027C879.065 165.353 880.629 165.072 881.918 164.245C883.207 163.419 884.115 162.114 884.441 160.617L888.859 140.385L895.823 135.917C896.204 136.524 896.702 137.05 897.289 137.462C897.875 137.874 898.538 138.165 899.238 138.318C899.939 138.471 900.663 138.483 901.368 138.353C902.073 138.222 902.745 137.952 903.344 137.559L907.812 144.523L903.395 164.756C903.068 166.252 903.349 167.816 904.176 169.105C905.003 170.394 906.308 171.302 907.804 171.628C909.3 171.955 910.865 171.674 912.154 170.847C913.443 170.02 914.35 168.715 914.677 167.219L919.603 144.655C919.928 143.159 919.646 141.595 918.819 140.307L908.204 123.964Z" fill="black"></path> <path d="M1071.11 96.0221C1070.8 94.9809 1070.19 94.0515 1069.36 93.341C1068.54 92.6306 1067.53 92.1682 1066.45 92.0071C1065.37 91.8461 1064.27 91.993 1063.27 92.431C1062.28 92.8689 1061.42 93.58 1060.81 94.4821L1042.44 121.989L1035.38 110.993C1034.89 110.219 1034.22 109.575 1033.43 109.114C1032.64 108.653 1031.75 108.39 1030.84 108.346C1029.93 108.301 1029.02 108.467 1028.19 108.833C1027.36 109.198 1026.62 109.752 1026.04 110.451L1004.43 137.252C1003.95 137.835 1003.6 138.507 1003.38 139.229C1003.16 139.951 1003.09 140.709 1003.17 141.459C1003.25 142.209 1003.47 142.937 1003.83 143.598C1004.2 144.26 1004.68 144.844 1005.27 145.315C1005.99 145.868 1006.82 146.263 1007.7 146.475C1008.74 146.705 1009.83 146.642 1010.84 146.291C1011.84 145.941 1012.74 145.318 1013.41 144.492L1030.04 123.931L1037.44 135.476C1037.95 136.289 1038.65 136.957 1039.49 137.417C1040.33 137.876 1041.27 138.11 1042.23 138.097C1043.18 138.112 1044.13 137.894 1044.97 137.462C1045.82 137.029 1046.56 136.396 1047.1 135.616L1063.63 111.172L1078.65 158.971C1078.83 159.745 1079.16 160.473 1079.64 161.111C1080.11 161.748 1080.71 162.281 1081.4 162.676C1082.09 163.07 1082.85 163.319 1083.64 163.405C1084.43 163.491 1085.23 163.413 1085.99 163.177C1086.75 162.94 1087.45 162.549 1088.05 162.029C1088.65 161.509 1089.14 160.871 1089.48 160.154C1089.82 159.437 1090.01 158.658 1090.04 157.864C1090.07 157.07 1089.93 156.279 1089.64 155.54L1071.11 96.0221Z" fill="black"></path> <path d="M1125.48 364.93C1102.91 360.004 1092.16 382.164 1089.47 394.499C1087.34 404.276 1087.6 423.639 1104 427.219C1107.45 428.19 1111.12 428.03 1114.47 426.763C1117.83 425.496 1120.69 423.188 1122.63 420.178C1125.13 417.02 1125.78 416.216 1129.84 417.103C1144.36 420.272 1158.05 423.261 1162.57 402.578C1166.42 384.903 1152.55 370.842 1125.48 364.93ZM1132.31 405.821C1128.86 404.85 1125.19 405.01 1121.83 406.277C1118.48 407.545 1115.62 409.852 1113.67 412.863C1111.17 416.02 1110.52 416.824 1106.46 415.937C1097.36 413.95 1100.65 397.413 1100.75 396.962C1100.85 396.51 1106.09 372.518 1123.01 376.212C1132.64 378.314 1154.62 384.846 1151.28 400.114C1149.33 409.065 1148.48 409.352 1132.31 405.821Z" fill="black"></path> <path d="M1231.02 405.938L1244.49 397.296L1250.02 405.91L1236.54 414.552C1235.31 415.404 1234.46 416.7 1234.17 418.167C1233.88 419.634 1234.16 421.157 1234.97 422.417C1235.78 423.676 1237.05 424.572 1238.5 424.917C1239.96 425.262 1241.49 425.028 1242.78 424.265L1256.25 415.623L1264.89 429.093C1265.29 429.734 1265.82 430.288 1266.45 430.721C1267.07 431.155 1267.77 431.46 1268.51 431.618C1269.09 431.854 1269.7 431.987 1270.32 432.012L1259.04 438.926L1256.28 434.62C1255.45 433.332 1254.14 432.426 1252.65 432.1C1251.15 431.773 1249.59 432.053 1248.3 432.879L1229.98 444.637C1228.75 445.489 1227.9 446.785 1227.6 448.252C1227.31 449.719 1227.6 451.242 1228.4 452.502C1229.21 453.761 1230.48 454.657 1231.93 455.002C1233.39 455.347 1234.92 455.113 1236.21 454.35L1249.68 445.708L1258.32 459.178C1259.15 460.466 1260.45 461.372 1261.95 461.698C1263.44 462.025 1265 461.744 1266.29 460.919C1267.58 460.092 1268.49 458.788 1268.81 457.293C1269.14 455.798 1268.86 454.235 1268.03 452.946L1265.27 448.64L1273.88 443.113L1282.53 456.583C1283.35 457.871 1284.66 458.777 1286.15 459.103C1287.65 459.43 1289.21 459.149 1290.5 458.324C1291.79 457.497 1292.69 456.193 1293.02 454.698C1293.35 453.203 1293.07 451.64 1292.24 450.352L1280.48 432.025C1279.81 430.991 1278.82 430.204 1277.66 429.78C1276.5 429.357 1275.24 429.321 1274.06 429.677C1274.88 428.753 1275.37 427.589 1275.47 426.36C1275.57 425.131 1275.26 423.903 1274.6 422.861L1268.72 413.698L1282.1 405.507L1290.74 418.977C1291.56 420.264 1292.87 421.171 1294.36 421.497C1295.86 421.823 1297.42 421.543 1298.71 420.718C1300 419.891 1300.9 418.586 1301.23 417.092C1301.56 415.597 1301.28 414.033 1300.45 412.745L1290.04 396.526C1290.62 396.762 1291.23 396.895 1291.85 396.92C1292.59 397.085 1293.36 397.101 1294.1 396.966C1294.85 396.832 1295.56 396.549 1296.2 396.136C1297.48 395.309 1298.39 394.004 1298.72 392.51C1299.04 391.015 1298.76 389.451 1297.94 388.163L1287.45 372.32C1288.36 372.899 1289.41 373.206 1290.49 373.203C1291.56 373.201 1292.62 372.889 1293.52 372.306L1306.99 363.663L1315.63 377.134C1316.46 378.421 1317.76 379.327 1319.26 379.654C1320.75 379.98 1322.32 379.7 1323.61 378.874C1324.89 378.047 1325.8 376.743 1326.13 375.248C1326.45 373.753 1326.17 372.19 1325.35 370.902L1313.59 352.575C1312.76 351.288 1311.46 350.381 1309.96 350.055C1308.47 349.729 1306.9 350.009 1305.62 350.834L1287.29 362.593C1286.25 363.265 1285.47 364.254 1285.04 365.412C1284.62 366.57 1284.58 367.834 1284.94 369.014C1284.02 368.198 1282.85 367.705 1281.62 367.607C1280.39 367.509 1279.17 367.812 1278.12 368.472L1259.8 380.23C1258.57 381.082 1257.72 382.378 1257.42 383.845C1257.13 385.312 1257.42 386.835 1258.23 388.095C1259.03 389.354 1260.3 390.25 1261.75 390.595C1263.21 390.94 1264.74 390.706 1266.03 389.943L1279.5 381.301L1286.79 392.663C1285.88 392.084 1284.83 391.778 1283.75 391.78C1282.68 391.783 1281.62 392.094 1280.72 392.678L1262.39 404.436L1250.63 386.109C1249.81 384.822 1248.5 383.915 1247.01 383.589C1245.51 383.263 1243.95 383.543 1242.66 384.368L1224.34 396.127C1223.11 396.979 1222.25 398.274 1221.96 399.741C1221.67 401.208 1221.96 402.732 1222.76 403.991C1223.57 405.25 1224.84 406.147 1226.29 406.492C1227.75 406.837 1229.28 406.603 1230.57 405.84L1231.02 405.938Z" fill="black"></path> </g> <rect width="1442" height="560" fill="url(#paint0_linear)" fill-opacity="0.9"></rect> <defs> <linearGradient id="paint0_linear" x1="721" y1="0" x2="721" y2="560" gradientUnits="userSpaceOnUse"> <stop stop-color="white"></stop> <stop offset="1" stop-color="white" stop-opacity="0"></stop> </linearGradient> </defs> </svg> 