<?xml version="1.0" encoding="UTF-8"?> <svg xmlns="http://www.w3.org/2000/svg" width="587" height="698" viewBox="0 0 587 698" fill="none"> <g opacity="0.04" clip-path="url(#clip0)"> <path d="M542.721 220.867C539.372 204.685 520.951 193.652 487.983 188.09C465.747 184.327 442.388 184.329 418.845 188.142L364.601 196.964L251.932 133.079C250.524 132.272 248.859 131.989 247.252 132.233L212.352 137.906C209.924 138.305 207.867 139.921 206.902 142.19C205.946 144.461 206.217 147.067 207.626 149.081L253.665 215.005L222.942 220C188.728 224.321 171.096 208.575 167.911 205.375L121.312 160.317C119.673 158.733 117.405 158.05 115.186 158.395L85.7076 163.19C83.4682 163.558 81.5344 164.961 80.4938 166.983C79.4532 169.006 79.4251 171.39 80.435 173.435L113.869 241.304C105.776 246.516 101.157 256.171 102.789 266.23C103.854 272.784 107.415 278.533 112.816 282.419C115.496 284.351 118.475 285.702 121.59 286.455L100.083 312.421C98.1793 314.726 97.8959 317.969 99.3864 320.548C100.875 323.144 103.785 324.559 106.754 324.059L140.809 318.52C142.167 318.298 143.422 317.695 144.45 316.781L170.885 293.021C184.119 296.263 228.465 305.907 265.777 300.097C264.906 304.766 263.283 309.307 260.976 313.466L207.276 410.559C205.973 412.919 206.102 415.826 207.626 418.057C208.806 419.787 210.653 420.895 212.675 421.142C213.266 421.215 213.875 421.202 214.482 421.135L246.462 416.928C252.723 416.091 258.496 413.415 263.207 409.128L409.231 274.475L491.895 261.04C495.56 260.396 528.016 254.309 539.214 237.838C542.73 232.657 543.952 226.789 542.721 220.867ZM501.538 205.75C505.696 206.92 509.356 208.224 512.624 209.626C500.342 223.206 479.826 226.01 467.814 226.363C465.125 226.377 463.096 224.454 462.931 221.483C462.859 220.206 463.29 218.981 464.146 218.037C465.014 217.059 466.222 216.485 467.543 216.418C486.462 215.485 496.628 209.725 501.538 205.75ZM225.901 150.228L247.064 146.784L342.04 200.633L269.362 212.452L225.901 150.228ZM527.364 229.78C521.483 238.443 500.974 244.893 489.511 246.907L404.807 260.674C403.422 260.902 402.129 261.527 401.104 262.486L253.531 398.568C251.032 400.835 247.94 402.271 244.591 402.707L226.687 405.078L273.52 320.395C277.999 312.309 280.524 303.138 280.816 293.913L280.896 291.464C280.967 289.226 279.988 287.079 278.258 285.67C277.191 284.808 275.925 284.283 274.606 284.121C273.764 284.018 272.895 284.062 272.041 284.265C230.901 294.276 171.405 278.406 170.82 278.221C168.502 277.655 165.96 278.19 164.15 279.809L136.428 304.715L123.301 306.861L142.959 283.118C144.862 280.813 145.145 277.579 143.655 274.991C142.184 272.405 139.229 270.986 136.297 271.474L129.043 272.647C126.287 273.138 123.473 272.441 121.181 270.795C118.889 269.148 117.381 266.709 116.938 263.931C116.033 258.375 119.631 253.097 125.123 251.92C127.284 251.462 129.108 250.029 130.074 248.041C131.04 246.054 131.034 243.736 130.052 241.748L97.5656 175.783L113.946 173.12L157.756 215.483C161.773 219.517 183.848 239.412 224.858 234.205C224.939 234.198 225.028 234.181 225.109 234.174L421.147 202.297C439.797 199.266 458.219 198.979 476.064 201.034C473.329 201.526 470.355 201.939 466.83 202.112C461.67 202.37 456.927 204.626 453.488 208.461C450.059 212.28 448.33 217.196 448.645 222.68C449.195 232.079 456.275 239.448 465.303 240.554C466.258 240.671 467.239 240.72 468.229 240.691C483.234 240.253 509.222 236.328 524.837 217.195C526.893 219.277 528.216 221.475 528.692 223.77C529.133 225.917 528.729 227.771 527.364 229.78Z" fill="black"></path> <path d="M371.149 221.31L356.715 223.657C354.957 223.941 353.764 225.599 354.05 227.356L356.397 241.791C356.682 243.549 358.338 244.742 360.096 244.455L374.531 242.109C376.288 241.823 377.481 240.167 377.196 238.409L374.848 223.975C374.564 222.218 372.907 221.025 371.149 221.31Z" fill="black"></path> <path d="M334.358 227.292L319.924 229.638C318.166 229.924 316.973 231.581 317.259 233.338L319.606 247.773C319.891 249.531 321.548 250.724 323.306 250.438L337.74 248.091C339.498 247.806 340.691 246.149 340.405 244.391L338.059 229.957C337.772 228.199 336.115 227.006 334.358 227.292Z" fill="black"></path> <path d="M297.567 233.274L283.132 235.621C281.375 235.905 280.181 237.562 280.467 239.32L282.813 253.755C283.099 255.512 284.756 256.706 286.514 256.419L300.948 254.073C302.706 253.787 303.899 252.131 303.613 250.373L301.266 235.939C300.98 234.181 299.325 232.988 297.567 233.274Z" fill="black"></path> <path d="M260.775 239.255L246.34 241.601C244.583 241.887 243.389 243.544 243.676 245.301L246.022 259.736C246.308 261.494 247.964 262.687 249.722 262.401L264.156 260.054C265.914 259.769 267.107 258.111 266.821 256.354L264.474 241.919C264.188 240.162 262.532 238.969 260.775 239.255Z" fill="black"></path> <path d="M16.8801 522.339C16.7908 522.707 16.6173 522.979 16.3597 523.154C16.104 523.327 15.7839 523.391 15.3994 523.344C14.9826 523.292 14.6664 523.102 14.451 522.772C14.2372 522.443 14.161 522.028 14.2223 521.527L14.2639 521.188C14.3041 520.86 14.3975 520.578 14.5443 520.344C14.6927 520.109 14.8825 519.939 15.1136 519.833C15.3449 519.725 15.6019 519.689 15.8846 519.723C16.2594 519.769 16.547 519.911 16.7475 520.149C16.9481 520.385 17.0444 520.69 17.0362 521.065L16.5685 521.007C16.5626 520.721 16.4994 520.507 16.3792 520.364C16.2605 520.222 16.08 520.136 15.8377 520.106C15.5404 520.07 15.2935 520.151 15.097 520.35C14.9021 520.549 14.7798 520.851 14.7301 521.257L14.6883 521.599C14.6414 521.981 14.684 522.296 14.8163 522.542C14.9485 522.787 15.1584 522.928 15.446 522.963C15.7045 522.995 15.9095 522.961 16.061 522.861C16.2144 522.76 16.3315 522.567 16.4124 522.282L16.8801 522.339ZM18.8493 521.464C18.7828 521.444 18.71 521.43 18.6308 521.42C18.3368 521.384 18.122 521.485 17.9863 521.722L17.7583 523.583L17.31 523.528L17.6312 520.906L18.0674 520.96L18.0375 521.264C18.2132 521.047 18.436 520.956 18.7058 520.989C18.793 520.999 18.8579 521.019 18.9003 521.047L18.8493 521.464ZM20.0254 523.91C19.67 523.867 19.3951 523.715 19.2006 523.455C19.0064 523.193 18.9332 522.867 18.9811 522.476L18.9912 522.394C19.023 522.134 19.1007 521.908 19.2242 521.716C19.3495 521.523 19.508 521.381 19.6998 521.288C19.8933 521.193 20.0943 521.159 20.3027 521.184C20.6436 521.226 20.8948 521.371 21.0563 521.619C21.2178 521.866 21.273 522.199 21.2217 522.618L21.1989 522.804L19.4226 522.587C19.3974 522.846 19.4469 523.064 19.5711 523.242C19.6971 523.418 19.8715 523.52 20.0945 523.547C20.2528 523.567 20.3909 523.551 20.5086 523.5C20.6264 523.448 20.733 523.375 20.8285 523.278L21.0762 523.525C20.8151 523.835 20.4649 523.964 20.0254 523.91ZM20.2576 521.553C20.0767 521.531 19.9167 521.578 19.7777 521.696C19.6389 521.811 19.5404 521.986 19.4822 522.22L20.7957 522.381L20.7998 522.347C20.8148 522.118 20.775 521.934 20.6803 521.796C20.5859 521.657 20.445 521.576 20.2576 521.553ZM23.1938 524.249C23.1743 524.194 23.1645 524.099 23.1646 523.965C22.9297 524.156 22.6676 524.234 22.3785 524.198C22.12 524.167 21.9164 524.068 21.7678 523.902C21.6211 523.735 21.5614 523.539 21.5889 523.315C21.6224 523.042 21.7517 522.843 21.9769 522.718C22.2039 522.591 22.5056 522.551 22.882 522.597L23.3182 522.651L23.3434 522.445C23.3626 522.288 23.331 522.158 23.2486 522.054C23.1664 521.949 23.034 521.885 22.8514 521.863C22.6915 521.843 22.5525 521.867 22.4343 521.935C22.3162 522.002 22.2501 522.094 22.236 522.208L21.7853 522.153C21.8013 522.022 21.8628 521.902 21.9697 521.792C22.0785 521.681 22.2164 521.599 22.3834 521.547C22.552 521.496 22.7317 521.482 22.9223 521.505C23.2244 521.542 23.4518 521.647 23.6044 521.82C23.7573 521.991 23.8207 522.21 23.7947 522.475L23.6469 523.682C23.6174 523.923 23.6247 524.118 23.6686 524.268L23.6639 524.307L23.1938 524.249ZM22.4917 523.816C22.6322 523.833 22.77 523.813 22.9049 523.756C23.0398 523.699 23.1426 523.616 23.2134 523.506L23.2793 522.968L22.928 522.925C22.3787 522.858 22.0843 522.985 22.045 523.306C22.0278 523.447 22.0611 523.563 22.1452 523.653C22.2292 523.744 22.3447 523.798 22.4917 523.816ZM25.2817 521.199L25.204 521.834L25.6935 521.894L25.651 522.24L25.1615 522.18L24.9624 523.806C24.9495 523.911 24.9616 523.993 24.9987 524.052C25.036 524.109 25.1071 524.144 25.2122 524.157C25.2638 524.163 25.3361 524.162 25.429 524.154L25.3844 524.517C25.2625 524.535 25.1459 524.537 25.0344 524.524C24.8341 524.499 24.6904 524.42 24.6035 524.286C24.5166 524.153 24.4867 523.974 24.5141 523.752L24.7132 522.125L24.2358 522.067L24.2783 521.72L24.7557 521.779L24.8334 521.144L25.2817 521.199ZM26.9803 524.762C26.6249 524.718 26.35 524.567 26.1555 524.307C25.9613 524.045 25.8881 523.719 25.936 523.328L25.946 523.246C25.9779 522.985 26.0556 522.76 26.1791 522.568C26.3043 522.375 26.4629 522.232 26.6546 522.139C26.8482 522.045 27.0492 522.011 27.2576 522.036C27.5985 522.078 27.8497 522.223 28.0112 522.47C28.1727 522.718 28.2278 523.051 28.1766 523.47L28.1537 523.656L26.3774 523.439C26.3522 523.698 26.4017 523.916 26.5259 524.094C26.6519 524.27 26.8264 524.372 27.0494 524.399C27.2077 524.418 27.3457 524.403 27.4635 524.351C27.5813 524.3 27.6879 524.226 27.7833 524.13L28.031 524.377C27.77 524.687 27.4197 524.816 26.9803 524.762ZM27.2125 522.405C27.0315 522.382 26.8716 522.43 26.7326 522.547C26.5937 522.663 26.4953 522.838 26.4371 523.072L27.7505 523.233L27.7547 523.199C27.7697 522.97 27.7298 522.786 27.6352 522.648C27.5408 522.509 27.3999 522.428 27.2125 522.405ZM28.5841 523.556C28.6333 523.154 28.7682 522.843 28.9888 522.622C29.2095 522.4 29.4741 522.308 29.7827 522.345C30.0896 522.383 30.3199 522.518 30.4735 522.75L30.6409 521.383L31.0892 521.438L30.6333 525.16L30.2213 525.11L30.234 524.826C30.0277 525.024 29.7647 525.103 29.4448 525.064C29.1411 525.027 28.9083 524.872 28.7466 524.6C28.5864 524.327 28.5308 523.991 28.5799 523.59L28.5841 523.556ZM29.0262 523.662C28.9897 523.959 29.0226 524.2 29.1248 524.383C29.227 524.566 29.3864 524.671 29.6029 524.697C29.8872 524.732 30.1104 524.63 30.2726 524.39L30.4201 523.186C30.3163 522.922 30.1254 522.774 29.8475 522.74C29.6278 522.713 29.4462 522.777 29.3026 522.931C29.1591 523.086 29.0669 523.329 29.0262 523.662ZM34.939 524.386C34.8899 524.787 34.7584 525.098 34.5443 525.319C34.3305 525.539 34.0684 525.63 33.7583 525.592C33.4271 525.552 33.1854 525.403 33.0331 525.147L32.9742 525.447L32.5622 525.396L33.0181 521.674L33.4665 521.729L33.2964 523.118C33.5048 522.915 33.7682 522.834 34.0864 522.873C34.4047 522.912 34.6396 523.063 34.791 523.325C34.9441 523.588 34.995 523.929 34.9437 524.348L34.939 524.386ZM34.4969 524.281C34.5343 523.975 34.5042 523.732 34.4067 523.551C34.3091 523.371 34.1497 523.267 33.9284 523.239C33.6327 523.203 33.4035 523.315 33.2406 523.573L33.1017 524.707C33.2054 524.999 33.4026 525.162 33.6934 525.198C33.9083 525.224 34.0857 525.162 34.2256 525.01C34.3655 524.858 34.456 524.615 34.4969 524.281ZM36.2582 525.183L37.1096 523.292L37.5894 523.351L36.1646 526.248C35.948 526.665 35.662 526.851 35.3066 526.807L35.2226 526.79L35.0593 526.738L35.1038 526.374L35.2238 526.399C35.3757 526.417 35.4973 526.401 35.5889 526.35C35.682 526.299 35.766 526.196 35.841 526.039L35.973 525.785L35.3552 523.077L35.8447 523.137L36.2582 525.183ZM41.166 524.795L39.6369 524.608L39.4837 525.858L41.26 526.076L41.2134 526.456L38.9719 526.182L39.404 522.653L41.6213 522.925L41.5744 523.308L39.8224 523.093L39.6835 524.227L41.2126 524.414L41.166 524.795ZM42.7644 526.324C42.9244 526.343 43.0701 526.312 43.2015 526.23C43.3329 526.148 43.414 526.034 43.4447 525.891L43.8688 525.943C43.8423 526.092 43.7731 526.228 43.6612 526.353C43.5492 526.477 43.4083 526.569 43.2385 526.63C43.0703 526.692 42.8973 526.712 42.7196 526.69C42.3626 526.646 42.0928 526.492 41.9102 526.229C41.7295 525.964 41.6645 525.625 41.7151 525.211L41.7243 525.136C41.7556 524.881 41.8302 524.66 41.9483 524.473C42.0663 524.285 42.2193 524.148 42.4072 524.059C42.5968 523.971 42.8111 523.941 43.0502 523.971C43.3442 524.007 43.5774 524.124 43.7497 524.324C43.9236 524.524 43.9998 524.766 43.9783 525.048L43.5542 524.996C43.5621 524.825 43.5145 524.678 43.4114 524.556C43.3102 524.432 43.1747 524.36 43.0051 524.339C42.7773 524.311 42.5903 524.372 42.4441 524.521C42.2997 524.669 42.2086 524.898 42.1706 525.208L42.1602 525.293C42.1232 525.595 42.1569 525.835 42.2613 526.014C42.3657 526.192 42.5334 526.296 42.7644 526.324ZM44.3164 525.481C44.3479 525.224 44.4263 524.999 44.5515 524.806C44.6785 524.614 44.8384 524.472 45.0314 524.383C45.226 524.294 45.4388 524.263 45.6698 524.291C46.0268 524.335 46.3001 524.494 46.4895 524.768C46.6806 525.042 46.751 525.385 46.7007 525.795L46.6968 525.827C46.6656 526.082 46.5882 526.305 46.4647 526.497C46.3431 526.687 46.184 526.827 45.9876 526.918C45.7928 527.009 45.5775 527.04 45.3416 527.011C44.9862 526.967 44.713 526.808 44.5219 526.534C44.3325 526.26 44.2627 525.92 44.3126 525.512L44.3164 525.481ZM44.7606 525.589C44.725 525.88 44.7635 526.122 44.876 526.314C44.9901 526.507 45.1603 526.617 45.3864 526.645C45.6142 526.673 45.8061 526.606 45.9619 526.445C46.118 526.282 46.2157 526.04 46.2551 525.718C46.2903 525.431 46.2501 525.19 46.1346 524.995C46.0208 524.799 45.8509 524.687 45.6247 524.66C45.4034 524.633 45.2141 524.699 45.0568 524.858C44.8995 525.018 44.8008 525.261 44.7606 525.589ZM47.8473 524.607L47.8214 524.939C48.0526 524.711 48.3298 524.617 48.6529 524.657C49.207 524.725 49.4482 525.071 49.3765 525.697L49.1643 527.43L48.7159 527.375L48.9285 525.64C48.95 525.451 48.9235 525.306 48.8489 525.205C48.776 525.104 48.6499 525.043 48.4706 525.021C48.3252 525.003 48.1928 525.026 48.0734 525.09C47.9541 525.154 47.856 525.245 47.7792 525.364L47.5503 527.232L47.102 527.177L47.4232 524.555L47.8473 524.607ZM50.9309 527.324C51.0909 527.344 51.2366 527.312 51.368 527.23C51.4994 527.148 51.5805 527.035 51.6112 526.891L52.0353 526.943C52.0088 527.092 51.9396 527.229 51.8277 527.353C51.7157 527.477 51.5748 527.569 51.405 527.631C51.2368 527.692 51.0638 527.712 50.8861 527.69C50.5291 527.646 50.2593 527.493 50.0768 527.229C49.896 526.965 49.831 526.625 49.8816 526.212L49.8908 526.137C49.9221 525.881 49.9968 525.66 50.1148 525.473C50.2328 525.286 50.3858 525.148 50.5738 525.059C50.7633 524.971 50.9776 524.942 51.2167 524.971C51.5108 525.007 51.7439 525.125 51.9162 525.325C52.0901 525.525 52.1663 525.766 52.1448 526.049L51.7207 525.997C51.7286 525.825 51.681 525.679 51.5779 525.556C51.4767 525.432 51.3412 525.36 51.1716 525.339C50.9438 525.311 50.7568 525.372 50.6106 525.521C50.4663 525.669 50.3751 525.898 50.3371 526.208L50.3267 526.293C50.2897 526.595 50.3234 526.836 50.4278 527.014C50.5322 527.192 50.6999 527.296 50.9309 527.324ZM53.5202 528.013C53.1648 527.969 52.8899 527.817 52.6954 527.557C52.5012 527.296 52.428 526.97 52.4759 526.579L52.486 526.496C52.5178 526.236 52.5955 526.01 52.719 525.819C52.8443 525.626 53.0028 525.483 53.1946 525.39C53.3881 525.296 53.5891 525.261 53.7975 525.287C54.1384 525.329 54.3896 525.473 54.5511 525.721C54.7126 525.969 54.7678 526.302 54.7165 526.72L54.6937 526.907L52.9174 526.689C52.8922 526.949 52.9417 527.167 53.0659 527.345C53.1919 527.521 53.3664 527.622 53.5893 527.65C53.7476 527.669 53.8857 527.653 54.0034 527.602C54.1212 527.551 54.2278 527.477 54.3233 527.381L54.571 527.627C54.3099 527.938 53.9597 528.066 53.5202 528.013ZM53.7524 525.655C53.5715 525.633 53.4115 525.681 53.2725 525.798C53.1337 525.914 53.0352 526.089 52.977 526.323L54.2905 526.484L54.2946 526.45C54.3096 526.22 54.2698 526.037 54.1752 525.899C54.0807 525.759 53.9398 525.678 53.7524 525.655ZM57.4417 527.143C57.3929 527.542 57.2622 527.852 57.0498 528.074C56.8373 528.295 56.5752 528.387 56.2634 528.349C55.9452 528.31 55.7071 528.178 55.5493 527.954L55.3947 529.216L54.9464 529.161L55.391 525.531L55.8005 525.581L55.7867 525.875C55.997 525.671 56.2645 525.589 56.5892 525.629C56.9042 525.667 57.1384 525.817 57.2919 526.076C57.447 526.337 57.4986 526.678 57.4468 527.101L57.4417 527.143ZM56.9997 527.037C57.0359 526.741 57.0015 526.5 56.8964 526.313C56.7914 526.127 56.629 526.02 56.4093 525.993C56.1379 525.96 55.9196 526.055 55.7544 526.279L55.6009 527.532C55.7057 527.788 55.8963 527.932 56.1725 527.966C56.3874 527.992 56.5682 527.928 56.715 527.774C56.8636 527.619 56.9585 527.373 56.9997 527.037ZM58.8638 525.312L58.786 525.947L59.2755 526.007L59.2331 526.354L58.7436 526.294L58.5444 527.92C58.5315 528.025 58.5437 528.106 58.5808 528.165C58.618 528.222 58.6892 528.257 58.7942 528.27C58.8459 528.276 58.9182 528.275 59.011 528.267L58.9665 528.631C58.8446 528.648 58.7279 528.651 58.6164 528.637C58.4161 528.612 58.2725 528.533 58.1855 528.4C58.0986 528.266 58.0688 528.088 58.0961 527.865L58.2953 526.239L57.8179 526.18L57.8603 525.834L58.3377 525.892L58.4155 525.257L58.8638 525.312ZM59.9673 528.753L59.519 528.698L59.8401 526.076L60.2885 526.131L59.9673 528.753ZM59.889 525.376C59.8979 525.304 59.9272 525.245 59.977 525.2C60.0283 525.156 60.0976 525.139 60.1849 525.149C60.2721 525.16 60.3353 525.193 60.3744 525.249C60.4135 525.304 60.4286 525.369 60.4197 525.441C60.4108 525.514 60.3807 525.572 60.3296 525.615C60.2784 525.658 60.2092 525.674 60.122 525.663C60.0347 525.652 59.9715 525.62 59.9322 525.566C59.8945 525.512 59.8801 525.449 59.889 525.376ZM61.6266 528.339L62.5227 526.405L62.9807 526.461L61.7194 528.968L61.3777 528.926L60.7489 526.188L61.2069 526.244L61.6266 528.339ZM64.1391 529.313C63.7837 529.27 63.5088 529.118 63.3143 528.858C63.1201 528.597 63.0469 528.27 63.0948 527.879L63.1049 527.797C63.1367 527.537 63.2144 527.311 63.3379 527.12C63.4632 526.927 63.6217 526.784 63.8135 526.691C64.007 526.596 64.208 526.562 64.4164 526.588C64.7573 526.629 65.0085 526.774 65.17 527.022C65.3315 527.269 65.3867 527.602 65.3354 528.021L65.3125 528.208L63.5363 527.99C63.5111 528.249 63.5606 528.468 63.6848 528.645C63.8108 528.821 63.9852 528.923 64.2082 528.95C64.3665 528.97 64.5046 528.954 64.6223 528.903C64.7401 528.852 64.8467 528.778 64.9422 528.681L65.1899 528.928C64.9288 529.239 64.5786 529.367 64.1391 529.313ZM64.3713 526.956C64.1904 526.934 64.0304 526.981 63.8914 527.099C63.7526 527.215 63.6541 527.389 63.5959 527.623L64.9094 527.784L64.9135 527.75C64.9285 527.521 64.8887 527.337 64.794 527.199C64.6996 527.06 64.5587 526.979 64.3713 526.956Z" fill="black"></path> <path d="M13.6899 528.122L13.9687 525.847L13.5543 525.796L13.5967 525.45L14.0111 525.5L14.044 525.231C14.0785 524.95 14.1802 524.742 14.3493 524.607C14.5183 524.472 14.7401 524.421 15.0148 524.455C15.1182 524.468 15.2191 524.494 15.3175 524.534L15.2487 524.894C15.1746 524.87 15.0947 524.853 15.0091 524.843C14.8637 524.825 14.7462 524.854 14.6565 524.93C14.5671 525.004 14.5126 525.121 14.4932 525.279L14.4594 525.555L15.0192 525.624L14.9767 525.97L14.417 525.902L14.1383 528.177L13.6899 528.122ZM16.7341 526.242C16.6676 526.222 16.5948 526.208 16.5156 526.198C16.2216 526.162 16.0068 526.263 15.8711 526.5L15.6431 528.362L15.1948 528.307L15.516 525.685L15.9522 525.738L15.9223 526.042C16.098 525.826 16.3208 525.734 16.5906 525.767C16.6778 525.778 16.7427 525.797 16.7851 525.825L16.7341 526.242ZM16.8729 527.157C16.9044 526.9 16.9828 526.675 17.1081 526.482C17.235 526.29 17.3949 526.148 17.5879 526.059C17.7825 525.97 17.9953 525.939 18.2263 525.967C18.5833 526.011 18.8566 526.17 19.046 526.444C19.2371 526.718 19.3075 527.061 19.2572 527.471L19.2533 527.503C19.2221 527.758 19.1447 527.981 19.0212 528.173C18.8996 528.363 18.7405 528.503 18.5441 528.594C18.3493 528.685 18.134 528.716 17.8981 528.687C17.5427 528.643 17.2695 528.484 17.0784 528.21C16.889 527.936 16.8192 527.596 16.8691 527.188L16.8729 527.157ZM17.3171 527.265C17.2815 527.556 17.32 527.798 17.4325 527.99C17.5466 528.183 17.7168 528.293 17.9429 528.321C18.1707 528.349 18.3626 528.282 18.5184 528.121C18.6745 527.958 18.7722 527.716 18.8116 527.394C18.8468 527.107 18.8066 526.866 18.6911 526.671C18.5773 526.475 18.4074 526.363 18.1812 526.336C17.9599 526.309 17.7706 526.375 17.6133 526.534C17.456 526.694 17.3573 526.937 17.3171 527.265ZM20.4013 526.283L20.3778 526.575C20.5978 526.373 20.8709 526.291 21.1973 526.331C21.564 526.376 21.7964 526.547 21.8944 526.845C21.9971 526.729 22.1226 526.641 22.2711 526.581C22.4211 526.521 22.5915 526.502 22.7821 526.525C23.3572 526.596 23.6123 526.936 23.5474 527.546L23.3322 529.303L22.8839 529.248L23.0959 527.518C23.1188 527.331 23.0931 527.186 23.0188 527.083C22.9446 526.979 22.8066 526.915 22.6046 526.89C22.4382 526.869 22.294 526.903 22.1719 526.989C22.0499 527.074 21.9698 527.2 21.9314 527.366L21.7183 529.106L21.2676 529.05L21.478 527.332C21.5247 526.951 21.3615 526.738 20.9883 526.692C20.6943 526.656 20.4778 526.756 20.3389 526.994L20.1044 528.908L19.6561 528.853L19.9773 526.231L20.4013 526.283ZM26.249 526.355L26.1712 526.99L26.6607 527.05L26.6183 527.396L26.1288 527.336L25.9296 528.962C25.9167 529.067 25.9288 529.149 25.9659 529.208C26.0032 529.265 26.0744 529.3 26.1794 529.313C26.2311 529.319 26.3034 529.318 26.3962 529.31L26.3517 529.673C26.2298 529.691 26.1131 529.693 26.0016 529.679C25.8013 529.655 25.6577 529.576 25.5707 529.442C25.4838 529.309 25.454 529.13 25.4813 528.907L25.6804 527.281L25.2031 527.223L25.2455 526.876L25.7229 526.935L25.8007 526.3L26.249 526.355ZM27.596 527.486C27.8246 527.267 28.098 527.176 28.4163 527.215C28.9704 527.283 29.2116 527.63 29.1399 528.256L28.9276 529.989L28.4793 529.934L28.6918 528.199C28.7134 528.009 28.6869 527.864 28.6123 527.763C28.5394 527.663 28.4133 527.601 28.234 527.579C28.0886 527.562 27.9562 527.585 27.8368 527.649C27.7175 527.713 27.6194 527.804 27.5426 527.923L27.3137 529.791L26.8654 529.736L27.3213 526.014L27.7696 526.069L27.596 527.486ZM30.681 530.253C30.3256 530.209 30.0507 530.057 29.8562 529.797C29.662 529.536 29.5888 529.21 29.6367 528.819L29.6468 528.736C29.6786 528.476 29.7563 528.25 29.8798 528.059C30.0051 527.866 30.1636 527.723 30.3553 527.63C30.5489 527.536 30.7499 527.501 30.9583 527.527C31.2992 527.569 31.5504 527.713 31.7119 527.961C31.8734 528.209 31.9285 528.542 31.8773 528.96L31.8544 529.147L30.0781 528.929C30.053 529.189 30.1024 529.407 30.2266 529.584C30.3526 529.761 30.5271 529.862 30.7501 529.89C30.9084 529.909 31.0464 529.893 31.1642 529.842C31.282 529.791 31.3886 529.717 31.484 529.62L31.7318 529.867C31.4707 530.178 31.1204 530.306 30.681 530.253ZM30.9132 527.895C30.7322 527.873 30.5723 527.921 30.4333 528.038C30.2945 528.154 30.196 528.329 30.1378 528.563L31.4512 528.724L31.4554 528.69C31.4704 528.46 31.4305 528.277 31.3359 528.139C31.2415 527.999 31.1006 527.918 30.9132 527.895ZM36.2436 530.885L35.7759 530.827L34.3326 527.891L33.9996 530.61L33.5319 530.553L33.9641 527.024L34.4318 527.082L35.8784 530.031L36.2129 527.3L36.6757 527.356L36.2436 530.885ZM37.0444 529.628C37.0759 529.371 37.1543 529.146 37.2796 528.953C37.4065 528.76 37.5664 528.619 37.7594 528.53C37.954 528.44 38.1668 528.41 38.3978 528.438C38.7549 528.482 39.0281 528.641 39.2175 528.915C39.4086 529.189 39.479 529.531 39.4287 529.942L39.4249 529.973C39.3936 530.228 39.3162 530.452 39.1927 530.643C39.0711 530.833 38.912 530.974 38.7156 531.065C38.5208 531.155 38.3055 531.186 38.0696 531.158C37.7142 531.114 37.441 530.955 37.2499 530.681C37.0605 530.407 36.9907 530.066 37.0406 529.659L37.0444 529.628ZM37.4886 529.736C37.453 530.027 37.4915 530.269 37.604 530.461C37.7181 530.654 37.8883 530.764 38.1145 530.792C38.3423 530.82 38.5341 530.753 38.6899 530.592C38.846 530.429 38.9437 530.186 38.9831 529.865C39.0183 529.577 38.9781 529.336 38.8626 529.142C38.7488 528.946 38.5789 528.834 38.3527 528.806C38.1314 528.779 37.9421 528.845 37.7848 529.005C37.6275 529.164 37.5288 529.408 37.4886 529.736ZM41.4806 531.263C41.281 531.447 41.0123 531.518 40.6747 531.477C40.3952 531.442 40.1918 531.336 40.0646 531.156C39.9392 530.975 39.8952 530.725 39.9326 530.407L40.1415 528.701L40.5898 528.756L40.3823 530.45C40.3337 530.847 40.4709 531.066 40.794 531.105C41.1365 531.147 41.3799 531.047 41.5243 530.806L41.7578 528.899L42.2062 528.954L41.885 531.576L41.4585 531.523L41.4806 531.263ZM43.3136 529.089L43.2878 529.421C43.519 529.193 43.7961 529.099 44.1192 529.139C44.6734 529.207 44.9146 529.554 44.8428 530.179L44.6306 531.912L44.1823 531.857L44.3948 530.122C44.4163 529.933 44.3898 529.788 44.3153 529.687C44.2424 529.586 44.1162 529.525 43.9369 529.503C43.7915 529.485 43.6591 529.508 43.5398 529.572C43.4204 529.636 43.3224 529.727 43.2455 529.846L43.0167 531.714L42.5684 531.659L42.8895 529.037L43.3136 529.089ZM47.2425 530.83L47.0733 532.211L46.608 532.154L47.0402 528.626L48.3415 528.785C48.7276 528.833 49.0176 528.968 49.2116 529.192C49.4072 529.416 49.4851 529.69 49.4453 530.015C49.4033 530.357 49.2635 530.608 49.0259 530.768C48.7901 530.926 48.4727 530.981 48.0737 530.932L47.2425 530.83ZM47.2891 530.449L48.1251 530.552C48.3739 530.582 48.5717 530.548 48.7184 530.447C48.8653 530.346 48.9523 530.184 48.9794 529.963C49.0051 529.753 48.9595 529.577 48.8424 529.434C48.7254 529.292 48.5517 529.205 48.3212 529.171L47.4585 529.066L47.2891 530.449ZM51.2079 530.465C51.1414 530.445 51.0686 530.43 50.9895 530.421C50.6954 530.385 50.4806 530.485 50.3449 530.723L50.1169 532.584L49.6686 532.529L49.9898 529.907L50.426 529.96L50.3961 530.264C50.5719 530.048 50.7946 529.956 51.0644 529.989C51.1516 530 51.2165 530.02 51.2589 530.048L51.2079 530.465ZM51.3467 531.379C51.3782 531.122 51.4566 530.898 51.5819 530.705C51.7088 530.512 51.8687 530.371 52.0617 530.281C52.2563 530.192 52.4691 530.162 52.7001 530.19C53.0572 530.234 53.3304 530.392 53.5198 530.667C53.7109 530.941 53.7813 531.283 53.731 531.694L53.7272 531.725C53.6959 531.98 53.6185 532.204 53.495 532.395C53.3734 532.585 53.2143 532.726 53.0179 532.816C52.8231 532.907 52.6078 532.938 52.3719 532.909C52.0165 532.866 51.7433 532.707 51.5522 532.433C51.3628 532.159 51.293 531.818 51.3429 531.411L51.3467 531.379ZM51.7909 531.488C51.7553 531.779 51.7938 532.02 51.9063 532.213C52.0204 532.406 52.1906 532.516 52.4168 532.543C52.6446 532.571 52.8364 532.505 52.9922 532.343C53.1483 532.18 53.246 531.938 53.2854 531.617C53.3206 531.329 53.2804 531.088 53.1649 530.894C53.0511 530.698 52.8812 530.586 52.655 530.558C52.4337 530.531 52.2444 530.597 52.0871 530.757C51.9298 530.916 51.8311 531.16 51.7909 531.488ZM54.9163 530.51L54.5581 533.435C54.4964 533.939 54.2369 534.163 53.7797 534.107C53.6811 534.095 53.5917 534.07 53.5112 534.03L53.5551 533.672C53.6052 533.691 53.6723 533.706 53.7563 533.716C53.8565 533.728 53.9358 533.71 53.9942 533.661C54.054 533.615 54.0922 533.524 54.1086 533.39L54.468 530.456L54.9163 530.51ZM54.5072 529.754C54.5159 529.683 54.5451 529.625 54.5949 529.581C54.6464 529.535 54.715 529.517 54.8007 529.527C54.8879 529.538 54.9511 529.571 54.9902 529.627C55.0293 529.682 55.0444 529.746 55.0355 529.819C55.0266 529.892 54.9965 529.95 54.9453 529.993C54.8942 530.036 54.825 530.052 54.7377 530.041C54.6505 530.03 54.588 529.998 54.5503 529.944C54.5127 529.89 54.4983 529.827 54.5072 529.754ZM56.4019 533.403C56.0465 533.359 55.7715 533.208 55.5771 532.948C55.3828 532.686 55.3097 532.36 55.3575 531.969L55.3676 531.887C55.3995 531.626 55.4772 531.401 55.6006 531.209C55.7259 531.016 55.8845 530.873 56.0762 530.78C56.2698 530.686 56.4708 530.652 56.6792 530.677C57.02 530.719 57.2712 530.864 57.4328 531.111C57.5943 531.359 57.6494 531.692 57.5982 532.111L57.5753 532.297L55.799 532.08C55.7738 532.339 55.8233 532.557 55.9475 532.735C56.0735 532.911 56.248 533.013 56.4709 533.04C56.6293 533.059 56.7673 533.044 56.8851 532.992C57.0028 532.941 57.1095 532.867 57.2049 532.771L57.4526 533.018C57.1916 533.328 56.8413 533.457 56.4019 533.403ZM56.6341 531.046C56.4531 531.023 56.2931 531.071 56.1541 531.188C56.0153 531.304 55.9168 531.479 55.8587 531.713L57.1721 531.874L57.1763 531.84C57.1912 531.611 57.1514 531.427 57.0568 531.289C56.9624 531.15 56.8215 531.068 56.6341 531.046ZM59.0421 533.355C59.202 533.375 59.3477 533.343 59.4791 533.261C59.6105 533.179 59.6916 533.066 59.7223 532.922L60.1464 532.974C60.1199 533.123 60.0507 533.26 59.9388 533.384C59.8268 533.508 59.686 533.6 59.5161 533.661C59.3479 533.723 59.1749 533.743 58.9972 533.721C58.6402 533.677 58.3704 533.524 58.1879 533.26C58.0071 532.995 57.9421 532.656 57.9928 532.243L58.002 532.167C58.0332 531.912 58.1079 531.691 58.2259 531.504C58.3439 531.316 58.4969 531.179 58.6849 531.09C58.8744 531.002 59.0887 530.972 59.3278 531.002C59.6219 531.038 59.855 531.156 60.0273 531.355C60.2012 531.555 60.2774 531.797 60.2559 532.079L59.8318 532.028C59.8397 531.856 59.7921 531.709 59.689 531.587C59.5878 531.463 59.4524 531.391 59.2827 531.37C59.0549 531.342 58.8679 531.403 58.7217 531.552C58.5774 531.7 58.4862 531.929 58.4482 532.239L58.4378 532.324C58.4008 532.626 58.4345 532.866 58.5389 533.045C58.6433 533.223 58.811 533.327 59.0421 533.355ZM61.5564 530.679L61.4786 531.314L61.9681 531.374L61.9257 531.721L61.4362 531.661L61.237 533.287C61.2242 533.392 61.2363 533.474 61.2734 533.532C61.3107 533.589 61.3818 533.624 61.4868 533.637C61.5385 533.643 61.6108 533.642 61.7036 533.634L61.6591 533.998C61.5372 534.016 61.4205 534.018 61.3091 534.004C61.1087 533.979 60.9651 533.9 60.8782 533.767C60.7912 533.633 60.7614 533.455 60.7887 533.232L60.9879 531.606L60.5105 531.547L60.5529 531.201L61.0303 531.259L61.1081 530.624L61.5564 530.679Z" fill="black"></path> </g> <defs> <clipPath id="clip0"> <rect width="512" height="640" fill="white" transform="translate(77.8076) rotate(6.98296)"></rect> </clipPath> </defs> </svg> 